<?xml version="1.0" encoding="utf-8"?>
<!-- Generator: Adobe Illustrator 15.0.0, SVG Export Plug-In . SVG Version: 6.00 Build 0)  -->
<!DOCTYPE svg PUBLIC "-//W3C//DTD SVG 1.1//EN" "http://www.w3.org/Graphics/SVG/1.1/DTD/svg11.dtd">
<svg version="1.1" id="Layer_1" xmlns="http://www.w3.org/2000/svg" xmlns:xlink="http://www.w3.org/1999/xlink" x="0px" y="0px"
	 width="350px" height="350px" viewBox="0 0 350 350" enable-background="new 0 0 350 350" xml:space="preserve">
<g>
	<circle fill="#FFFFFF" cx="183.29" cy="205.951" r="144.189"/>
	<circle fill="#2B2D78" cx="183.291" cy="205.95" r="144.189"/>
	<path fill="#FCFDFF" d="M101.59,84.823L96.12,90.8l55.756,51.038c3.465,0,8.415,0,11.999,0L101.59,84.823z"/>
	<path fill="#FCFDFF" d="M171.221,80.112L65.458,137.606c6.465-0.157,14.056-0.34,20.567-0.498l85.452-46.451
		C171.375,86.462,171.32,84.231,171.221,80.112z"/>
	<path fill="#DB1F26" d="M171.301,83.435L71.941,137.45c3.763-0.091,7.635-0.185,11.293-0.275l88.207-47.95
		C171.389,87.04,171.348,85.356,171.301,83.435z"/>
	<path fill="#E11F26" d="M100.646,85.854l-3.232,3.534l57.296,52.45c2.633,0,4.389,0,7.093,0L100.646,85.854z"/>
	<path fill="#FCFDFF" d="M130.357,70.44c-4.622,1.724-9.242,4.542-13.864,6.358v65.04c4.622,0,9.242,0,13.864,0V70.44z"/>
	<path fill="#FFFFFF" d="M171.903,106.864c0-0.613,0-1.228,0-1.84c0-2.246,0-3.916,0-6.315H84.847
		c-3.084,6.005-6.302,10.807-11.783,15.44h98.84c0-1.912,0-3.767,0-5.444C171.903,108.092,171.903,107.477,171.903,106.864z"/>
	<path fill="#E41E26" d="M83.755,101.803c-2.221,2.992-4.327,6.3-6.795,9.124h94.944c0-2.793,0-6.218,0-9.124H83.755z"/>
	<path fill="#DE1F26" d="M127.841,71.617c-2.631,2.195-5.409,3.48-8.974,3.84v66.381c2.842,0,6.192,0,8.974,0V71.617z"/>
	<polygon fill="#FFFFFF" points="129.609,157.214 134.502,169.608 147.24,165.708 140.602,177.259 151.594,184.785 138.423,186.797 
		139.392,200.08 129.609,191.039 119.826,200.08 120.795,186.797 107.624,184.785 118.617,177.259 111.979,165.708 124.717,169.608 
			"/>
	<polygon fill="#FFFFFF" points="243.083,165.113 249.213,177.532 262.918,179.526 253.002,189.191 255.341,202.842 
		243.083,196.397 230.823,202.842 233.164,189.191 223.246,179.526 236.951,177.532 	"/>
	<polygon fill="#DBB327" points="243.083,165.113 242.635,165.334 248.881,177.988 261.844,179.875 252.465,189.017 
		254.677,201.928 243.083,195.832 231.486,201.928 233.701,189.017 224.32,179.875 237.283,177.989 243.531,165.334 
		243.083,165.113 242.635,165.334 243.083,165.113 242.635,164.892 236.619,177.075 222.172,179.178 232.626,189.365 
		230.158,203.755 243.082,196.962 256.005,203.756 253.539,189.365 263.992,179.177 249.545,177.075 243.082,163.983 
		242.635,164.892 	"/>
	<polygon fill="#DBB327" points="282.294,212.977 284.448,217.341 289.264,218.042 285.778,221.439 286.603,226.236 
		282.294,223.973 277.984,226.236 278.809,221.439 275.32,218.042 280.138,217.341 	"/>
	<polygon fill="#DBB327" points="296.878,220.794 299.031,225.159 303.849,225.86 300.36,229.258 301.185,234.055 296.878,231.791 
		292.567,234.055 293.39,229.258 289.904,225.86 294.72,225.159 	"/>
	<polygon fill="#DBB327" points="315.054,224.857 317.208,229.222 322.024,229.923 318.538,233.319 319.361,238.117 
		315.054,235.854 310.743,238.117 311.567,233.319 308.081,229.923 312.897,229.222 	"/>
	<polygon fill="#DBB327" points="267.43,199.32 269.585,203.685 274.4,204.386 270.917,207.783 271.738,212.582 267.43,210.316 
		263.122,212.582 263.944,207.783 260.458,204.386 265.275,203.685 	"/>
	<path fill-rule="evenodd" clip-rule="evenodd" fill="#8E5D4A" d="M200.931,219.322c-1.167,0.665-1.136,2.526-1.569,3.923
		c-0.611-0.173-0.912-0.657-0.785-1.569c-0.25-1.819,0.126-3.012,0.785-3.923C200.06,218.101,200.764,218.441,200.931,219.322z"/>
	<path fill-rule="evenodd" clip-rule="evenodd" fill="#8E5D4A" d="M219.763,224.03c-0.248,1.061-1.117,1.498-0.785,3.139
		c-1.062-0.771-1.568-2.094-2.354-3.139C218.62,224.885,219.666,220.355,219.763,224.03z"/>
	<path fill-rule="evenodd" clip-rule="evenodd" fill="#8E5D4A" d="M116.188,257.771c-0.379,4.067-0.342,8.552-1.569,11.77
		C114.043,267.328,114.672,260.416,116.188,257.771z"/>
	<path fill-rule="evenodd" clip-rule="evenodd" fill="#281B1A" d="M119.327,265.617c-1.677-0.491-0.736-4.83,0-5.493
		C120.5,261.695,119.733,263.03,119.327,265.617z"/>
	<path fill-rule="evenodd" clip-rule="evenodd" fill="#8E5D4A" d="M222.116,282.88c-1.567-3.025-2.15-5.934,0-7.848
		c0.247,1.263,1.117-0.06,0.785-1.569c1.818,2.675-0.321,4.459,0.784,7.848C222.728,281.398,221.827,281.544,222.116,282.88z"/>
	<path fill-rule="evenodd" clip-rule="evenodd" fill="#5A352B" d="M237.024,302.495c3.212-0.273-0.341,3.686-0.785,4.708
		C233.954,306.104,237.63,304.5,237.024,302.495z"/>
	<path fill-rule="evenodd" clip-rule="evenodd" fill="#8E5D4A" d="M124.035,228.738c1.294-3.413,5.615-3.801,7.846-6.277
		c1.14,0.348-0.08,0.688,0,1.569c2.11,0.54,1.516-1.622,2.354-2.354c1.031,3.656,2.5-2.479,3.138,1.569
		c1.418-0.403,4.818-5.452,5.493-1.569c1.577,1.831-0.347,1.831-0.785,0c-2.359,0.518-2.738,3.017-6.277,2.354
		c1.014,3.813-4.885-0.587-7.062,3.923c0.174,9.078-2.079-0.238,0.785-2.354C127.013,225.963,126.76,228.586,124.035,228.738z"/>
	<path fill-rule="evenodd" clip-rule="evenodd" fill="#8E5D4A" d="M115.403,292.295c1.16,3.547,2.438,6.979,3.139,10.985
		c0.608-0.176,1.548-0.021,1.569-0.785c1.204,0.188,0.115,1.293-0.784,1.569c0.705,1.388,1.893,2.291,2.354,3.924
		c0.603-2.22,1.757-3.269,0.785-7.063c3.052,0.349,2.343,4.457,3.138,7.063c1.84-5.074,1.048-7.91,2.354-13.34
		c0.958,0.089,1.858,0.234,1.569,1.57c0.915-0.132,0.852-1.241,0.785-2.354c-1.516,0.584-2.179-3.17-0.785-6.276
		c0.646,0.57,0.948,2.36,0,3.922c1.612-1.588,1.565,0.32,2.354,1.57c1.75-1.494-0.836-2.139-0.785-5.492
		c0.658-2.493,1.035,1.392,0.785,2.354c2.72-1.727,0.807-8.086,3.923-9.416c-1.021-2.38-2.275-4.525-3.139-7.063
		c2.282-1.125,0.882-0.602,0.785,1.569c2.155-1.505,3.374-3.95,3.138-7.847c-2.805,1.786,2.48-6.957-0.784-9.415
		c2.456,0.122,1.085-3.526,1.569-7.063c2.228,1.107,1.014,2.536,1.569,6.277c2.11-2.188-0.028-4.54,2.354-5.492
		c0.962,2.144-3.367,12.829,0.785,15.692c-4.172,3.1-5.032,18.557-3.923,25.109c-0.347,1.141-0.689-0.08-1.569,0
		c1.673,5.044-1.977,10.203,0,15.693c-0.347,1.141-0.689-0.08-1.569,0c0.144-0.667-0.306-0.74-0.785-0.785
		c0.01-2.201,2.141,1.869,1.569-1.569c-1.593-1.908-2.816,0.792-4.708,2.354c1.353,6.699,1.446,10.637-4.708,12.555
		c-0.222-1.402,0.741-1.611,0.784-0.785c1.272,0.561,1.272-3.7,0-3.139c-0.891,0.148-0.436,0.787,0,0.785
		c-0.277,1.229-1.381-0.688-1.569,0.784C121.845,308.659,115.219,302.621,115.403,292.295z"/>
	<path fill-rule="evenodd" clip-rule="evenodd" fill="#8E5D4A" d="M141.296,250.708c-0.415-5.905,4.616-6.369,7.062-9.416
		C146.044,244.471,143.018,246.938,141.296,250.708z"/>
	<path fill-rule="evenodd" clip-rule="evenodd" fill="#8E5D4A" d="M207.992,239.723c11.446,2.277,15.722,13.234,16.479,21.971
		c0,0.522,0,1.046,0,1.569c-2.491,1.695-2.183,6.187-2.354,10.2c-4.14-1.544,0.948-14.293,0-20.4
		C221.408,248.504,213.914,242.698,207.992,239.723z"/>
	<path fill-rule="evenodd" clip-rule="evenodd" fill="#8E5D4A" d="M225.255,285.234c0,0.521,0,1.045,0,1.568
		c-0.402,1.877,0.439,3.722,2.354,6.277c-3.17,2.447-0.345,6.717-0.785,10.984c1.162-0.146,0.719-1.896,0.785-3.139
		c1.165-0.031,1.135,4.661,1.569,0.785c1.08,1.214,1.579,4.71,0.784,5.492c1.896-1.359,1.136-3.68,2.354-7.062
		c2.278,1.094-0.224,3.872-0.785,4.708c4.25-2.497,1.532,0.073,2.354,2.354c4.119-2.582,0.801-8.146,3.923-10.984
		c0,1.83,0,3.661,0,5.492c2.149-1.253,0.878-5.924,2.354-7.847c1.765,2.2,0.957,6.722,3.139,4.708
		c-0.605,5.021-2.857,11.235-1.569,15.693c-2.36,0.79-1.392-1.748-1.569-3.139c-1.77,0.584-0.307,4.401-0.785,6.277
		c-0.965-0.343-1.611-1.005-1.569-2.354c-2.734,2.675-0.103,7.192-3.923,10.985c0-2.354,0-4.708,0-7.063
		c-1.37,0.723-1.731,2.454-1.568,4.709c-1.912-1.211-0.253-5.422,0.785-6.277c-0.195-0.852-1.562-0.533-1.57-1.569
		c-2.513,2.239-1.099,5.643-3.139,9.415c-0.398-12.78-6.752-24.419-6.277-41.586C225.132,281.252,221.594,287.963,225.255,285.234z
		 M236.239,307.203c0.444-1.022,3.997-4.981,0.785-4.708C237.63,304.5,233.954,306.104,236.239,307.203z"/>
	<path fill-rule="evenodd" clip-rule="evenodd" fill="#8E5D4A" d="M227.609,227.169c0.878-2.194,3.817,4.018,3.139,0.784
		c9.612,4.336,14.079,21.326,15.692,38.448c-1.781-5.281-2.148-11.976-4.708-16.478c-1.996,2.303,1.631,5.658,1.569,8.631
		c-3.805-4.943-4.004-6.816-4.708-12.555c1.618,0.214,0.187,3.476,2.354,3.139c-0.018-4.568-2.964-3.961-3.139-10.985
		c-0.61,0.174-0.911,0.658-0.784,1.569c0.953-3.335-2.861-8.024-2.354-8.632c-4.136,0.466,0.594,6.755-1.567,7.847
		c-0.816-0.496-0.8-4.405-0.785-7.847C230.872,235.908,229.666,228.601,227.609,227.169z"/>
	<path fill-rule="evenodd" clip-rule="evenodd" fill="#8E5D4A" d="M220.547,224.03c0.515-1.461,2.247,2.386,3.139,3.139
		c0.537-2.763,0.911-2.487,3.139,0c0.902,0.927,0.888,2.773,0.785,4.707c-1.054-0.515-1.462-1.677-1.569-3.138
		c-0.881-0.079-1.223,1.141-1.569,0c-0.915,0.132-0.853,1.24-0.785,2.353c0.339,0.273-4.068-5.029-2.354-6.276
		C219.7,225.693,219.669,225.66,220.547,224.03z"/>
	<path fill-rule="evenodd" clip-rule="evenodd" fill="#8E5D4A" d="M182.883,222.461c1.18-1.175,3.305-1.404,3.924-3.139
		c0.407,2.381,1.039,0.803,3.923,0c-0.941,1.03-0.306,1.233,0,2.354c0.798-0.51,0.812-1.804,2.354-1.569c0,0.523,0,1.046,0,1.569
		c-0.986,0.321-1.604,1.013-1.57,2.354c-1.699-2.405-1.827-1.837-4.707-2.354c1.785,2.398-1.416,0.397-3.924,1.569
		C182.883,222.984,182.883,222.722,182.883,222.461z"/>
	<path fill-rule="evenodd" clip-rule="evenodd" fill="#8E5D4A" d="M182.099,221.676c-0.578,0.826-2.99-0.538-3.139,2.354
		c-0.986-0.322-1.604-1.012-1.569-2.354c-1.003,0.043-1.087,1.006-2.354,0.785C175.813,219.015,179.746,220.813,182.099,221.676z"/>
	<path fill-rule="evenodd" clip-rule="evenodd" fill="#8E5D4A" d="M163.267,220.106c0.698-0.609,1.772-0.843,3.139-0.784
		c-1.92-2.158,1.172-1.655,0.785,0.784c-1.729-0.405-4.329,3.953-4.708,0C162.744,220.106,163.005,220.106,163.267,220.106z"/>
	<path fill-rule="evenodd" clip-rule="evenodd" fill="#5A352B" d="M162.482,219.322c1.63-0.878,1.662-0.846,0.785,0.784
		c-0.262,0-0.523,0-0.785,0c0.379,3.953,2.979-0.405,4.708,0c3.035-0.42,3.831,1.4,7.062,0.785
		c-0.127,0.911,0.173,1.396,0.785,1.569c1.267,0.221,1.351-0.742,2.354-0.785c-0.035,1.343,0.583,2.032,1.569,2.354
		c0.148-2.893,2.561-1.528,3.139-2.354c0.415-1.207,0.818-0.051,0.784,0.785c0,0.261,0,0.523,0,0.784
		c2.508-1.172,5.709,0.829,3.924-1.569c2.88,0.518,3.008-0.051,4.707,2.354c-0.033-1.342,0.584-2.033,1.57-2.354
		c0.094,1.28,3.346-0.748,3.139-2.354c1.81-0.24,0.871,2.267,2.354,2.354c-0.127,0.912,0.174,1.396,0.785,1.569
		c0.434-1.396,0.402-3.258,1.569-3.923c1.147,2.307,4.305-1.876,3.923,2.354c0,0.262,0,0.523,0,0.785
		c0.912,0.127,1.396-0.174,1.569-0.785c1.141,0.348-0.079,0.689,0,1.569c1.335,0.288,1.48-0.612,1.569-1.569
		c0.815,0.32,2.754,3.043,0,2.354c1.723,1.292,3.899,0.468,5.493-1.569c-0.24,1.593,2.267-0.161,2.354-0.785
		c1.771,0.439-0.951,1.225,0.785,2.354c0.785,1.045,1.292,2.367,2.354,3.139c-0.332-1.641,0.537-2.078,0.785-3.139
		c0.262,0,0.521,0,0.784,0c-0.878,1.63-0.847,1.663,0.785,0.784c-1.715,1.247,2.692,6.55,2.354,6.276
		c-0.067-1.112-0.13-2.221,0.785-2.353c0.347,1.141,0.688-0.079,1.569,0c0.107,1.461,0.516,2.623,1.569,3.138
		c0.103-1.934,0.117-3.78-0.785-4.707c0.262,0,0.522,0,0.785,0c2.057,1.432,3.263,8.739,4.708,3.922
		c-0.015,3.441-0.031,7.351,0.785,7.847c2.161-1.092-2.568-7.381,1.567-7.847c-0.507,0.607,3.308,5.297,2.354,8.632
		c-0.127-0.911,0.174-1.396,0.784-1.569c0.175,7.024,3.121,6.417,3.139,10.985c-2.167,0.337-0.735-2.925-2.354-3.139
		c0.704,5.738,0.903,7.611,4.708,12.555c0.062-2.973-3.565-6.328-1.569-8.631c2.56,4.502,2.927,11.196,4.708,16.478
		c1.841,13.501-1.544,22.179-3.139,32.171c-2.182,2.014-1.374-2.508-3.139-4.708c-1.477,1.923-0.205,6.594-2.354,7.847
		c0-1.831,0-3.662,0-5.492c-3.122,2.839,0.196,8.402-3.923,10.984c-0.821-2.28,1.896-4.851-2.354-2.354
		c0.562-0.836,3.063-3.614,0.785-4.708c-1.219,3.382-0.459,5.702-2.354,7.062c0.795-0.782,0.296-4.278-0.784-5.492
		c-0.435,3.876-0.404-0.816-1.569-0.785c-0.066,1.242,0.377,2.993-0.785,3.139c0.44-4.268-2.385-8.537,0.785-10.984
		c-1.915-2.556-2.757-4.4-2.354-6.277c2.186-1.117,1.432-5.103,0.785-5.492c1.232-0.599,1.172-2.49,3.139-2.354
		c-0.278,1.029-1.382,1.233-1.569,2.354c0.347,0.697,0.688,1.403,1.569,1.569c2.671-0.838-2.184-0.245-0.785-2.354
		c3.544,1.314,1.795,3.591,3.924,5.493c1.895-0.71,0.334-4.43-0.785-4.708c1.112-0.785,6.146,1.147,3.923,4.708
		c0.149,0.89,0.788,0.436,0.784,0c0.92,0.126,0.662,1.43,0.785,2.354c0.813-11.565-1.187-8.778,0-21.187
		c-1.301,0.793-0.852,3.334-1.569,4.709c-1.132-1.419-0.179-2.403-0.785-5.493c-1.88-0.312,0.436,3.575-2.353,2.354
		c-0.322,1.89,1.433,1.705,0.785,3.923c-2.851-3.351-0.604-7.124-2.354-11.771c2.309,1.669,0.163,2.922,2.354,4.709
		c1.585-2.007,2.1-6.099,0-7.847c3.814-1.89,0.966,6.935,2.353,8.631c3.083-4.98-0.443-6.105,0.784-11.77
		c-2.163,3.388-1.568-1.221-0.784-3.139c-0.764,0.021-0.608,0.96-0.785,1.569c-3.525-5.949-4.524-11.056-3.138-18.833
		c-2.621,3.085-1.42-0.593-2.354-3.139c-0.851,5.024-0.271,13.057,1.569,19.617c-0.765-0.022-0.609-0.96-0.785-1.569
		c-0.764,0.021-0.609,0.961-0.784,1.569c-1.021-1.856-1.311-4.444-2.354-6.276c2.832,2.405-0.214-2.704,0.785-5.494
		c-3.309,8.131-2.053,13.2-3.139,22.756c-0.757-8.736-5.032-19.693-16.479-21.971c-5.774,0.021-8.869-2.638-13.34-3.924
		c7.714,1.451,14.315,1.569,18.048,5.493c1.061-1.903,1.568-0.488,2.354-1.569c2.025,3.978,4.205,4.332,5.493,7.847
		c1.481-0.087,0.544-2.594,2.354-2.354c1.988-1.624-1.654,1.058-0.785,3.139c6.398-2.189,0.739-15.106-2.354-21.186
		c-0.405,1.802-0.554,1.273-3.139,0c-0.585,2.415,2.153,1.508,1.569,3.922c0.763-0.021,0.609-0.96,0.784-1.568
		c1.064,0.243,0.65,1.966,0.785,3.138c-1.786,0.335-3.04-2.226-4.709-0.784c-1.732-0.097-0.333-3.327-0.784-4.707
		c-0.733,0.575-1.189,1.426-1.569,2.354c-1.382-2.856-5.687-5.781-8.631-1.569c-1.728-4.414-1.743,2.436-3.139-3.139
		c-0.732,0.576-1.188,1.427-1.569,2.354c-1.719,1.876,0.688-1.9-0.785-2.354c-1.5-0.365-3.377,2.42-3.139-0.784
		c-2.302,0.667,1.021,1.975,0,3.923c-1.675-1.123-8.814,0.974-12.555-4.708c-2.602,0.276-1.23,4.522-1.568,7.062
		c-0.699-0.482-1.404-0.948-1.569,0c-0.394-1.423,0.977-3.053,0.784-6.276c-2.137,1.667-1.703,2.922-2.354,4.708
		c-1.047-1.307-4.446-0.264-5.492-1.569c-0.649-2.218,1.105-2.033,0.784-3.924c-1.342,0.552-3.253,4.511-2.354,4.708
		c-0.438,1.622-3.037-1.059-2.354-3.139c-1.286,1.59-3.198,2.556-6.277,2.354c-0.313-3.867-3.608-0.197-1.569-4.708
		c-1.955-0.313-2.322,4.9-0.785,5.492c-1.336,1.11-1.833-2.208-3.923-1.569c0.376-2.468-1.117-3.067-1.569-4.708
		c-0.965,0.342-1.612,1.004-1.569,2.354c0.763-0.021,0.609-0.961,0.785-1.569c1.927,0.701,2.126,5.488,0.784,7.062
		c-1.997-3.692-2.312,1.903-3.923,3.138c-1.167-0.663-1.136-2.525-1.569-3.922c-1.599,1.1,0.771,2.703-0.785,4.707
		c-1.397-0.574-0.113-1.427,0-2.354c-0.698,0.483-1.403,0.949-1.569,0c-0.919,0.128-0.662,1.432-0.785,2.354
		c-1.042-0.788-2.92-0.741-3.139-2.354c-1.13,0.179-0.274,2.343-1.569,2.354c-3.102,0.134,0.251-1.205-1.569-2.354
		c-1.702-0.132-0.355,2.784-0.785,3.924c-1.38-1.128-1.788-0.72-1.569,1.569c-1.452-0.44-1.019-6.743-2.354-4.708
		c-2.126-0.693,0.661-3.48,1.569-1.569c0.433-1.738-1.498-1.117-1.569-2.354c-2.183,1.229-3.325,12.487-1.569,6.276
		c2.209,0.794-0.217,3.333,0,4.708c0.763-0.021,0.609-0.96,0.785-1.569c1.384,1.438-0.868,5.894-0.785,8.632
		c1.674,0.367,1.495-1.121,1.569-2.354c1.576,0.875,0.9,6.068,0,7.062c1.77-2.862,3.14-1.459,3.138-5.492
		c6.483,2.052,11.692-10.098,21.971-9.417c-4.461,1.295-7.473,4.036-11.77,5.493c-2.446,3.047-7.477,3.511-7.062,9.416
		c0,0.263,0,0.523,0,0.785c-2.382,0.952-0.244,3.305-2.354,5.492c-0.556-3.741,0.658-5.17-1.569-6.277
		c-0.484,3.536,0.887,7.185-1.569,7.063c3.265,2.458-2.021,11.201,0.784,9.415c0.235,3.896-0.983,6.342-3.138,7.847
		c0.098-2.171,1.498-2.694-0.785-1.569c0.864,2.537,2.118,4.683,3.139,7.063c-3.117,1.33-1.204,7.689-3.923,9.416
		c0.25-0.962-0.126-4.847-0.785-2.354c-0.052,3.354,2.534,3.998,0.785,5.492c-0.789-1.25-0.742-3.158-2.354-1.57
		c0.948-1.562,0.646-3.352,0-3.922c-1.395,3.106-0.731,6.86,0.785,6.276c0.067,1.113,0.13,2.223-0.785,2.354
		c0.289-1.336-0.612-1.481-1.569-1.57c-1.306,5.43-0.514,8.266-2.354,13.34c-0.795-2.605-0.086-6.714-3.138-7.063
		c0.972,3.794-0.182,4.843-0.785,7.063c-0.46-1.633-1.649-2.536-2.354-3.924c0.899-0.276,1.988-1.381,0.784-1.569
		c-0.021,0.764-0.961,0.609-1.569,0.785c-0.701-4.007-1.979-7.438-3.139-10.985c-1.02-9.339-1.972-16.011-0.785-22.755
		c1.228-3.218,1.19-7.702,1.569-11.77c0-0.522,0-1.046,0-1.569c2.87-2.996,2.798-7.896,4.708-13.34
		c-2.386,2.725,1.852-9.066,3.139-13.339c0-0.262,0-0.523,0-0.784c2.726-0.152,2.979-2.775,5.492-3.139
		c-2.864,2.115-0.611,11.432-0.785,2.354c2.177-4.51,8.076-0.11,7.062-3.923c3.539,0.662,3.918-1.837,6.277-2.354
		c0.438,1.831,2.361,1.831,0.785,0c1.342,0.035,2.033-0.583,2.354-1.569c0.763,0.022,0.609,0.96,0.785,1.569
		c0.842-1.146,3.413-2.769,3.923,0c2.458-1.466,5.454-2.393,7.847-3.923c1.23,0.276-0.687,1.382,0.785,1.569
		c0,0.523,0,1.046,0,1.569c0.699-0.349,1.403-0.688,1.569-1.569c0.763,0.021,0.609,0.96,0.785,1.569
		C161.611,220.543,162.316,220.203,162.482,219.322z M130.312,258.555c1.635,0.231-1.164,2.123,1.569,2.354
		c-1.034-2.432,2.326-4.353,0-5.492c-0.009,1.037-1.375,0.718-1.569,1.569C133.57,257.093,130.47,257.502,130.312,258.555z
		 M119.327,260.124c-0.736,0.663-1.677,5.002,0,5.493C119.733,263.03,120.5,261.695,119.327,260.124z M117.757,277.387
		c-0.02,0.514,0.072,2.786,0.785,3.139C120.937,275.594,118.146,267.275,117.757,277.387z M117.757,281.311
		c0.521,3.785,5.204,5.387,2.354,10.199c0.522,0,1.046,0,1.569,0c0.791-0.01,0.986-1.375,0-1.568c-0.972,2.238,0.599-4.643,0-7.062
		c-1.351-0.311-2.012,1.164-2.354,0c1.471-0.188-0.446-1.293,0.784-1.569c0.044,0.478,0.117,0.928,0.785,0.785
		C121.598,279.355,118.336,280.755,117.757,281.311z M121.681,279.741c-0.082-2.436,2.469-2.239,1.569-5.493
		c-0.785,0-1.569,0-2.354,0C121.363,275.873,119.926,279.402,121.681,279.741z M244.086,275.032
		c-0.988,3.595-1.321,7.91-1.569,10.202c-0.107-1.463-0.516-2.623-1.569-3.139c1.35,2.682-1.321,5.32,0.785,7.846
		c0.52-2.259,5.656-10.099,1.569-9.416C245.546,280.43,244.993,276.646,244.086,275.032z M235.455,297.003
		c1-3.274,1.173-6.595-0.785-9.415C235.041,291.958,234.526,294.678,235.455,297.003z"/>
	<path fill-rule="evenodd" clip-rule="evenodd" fill="#8E5D4A" d="M158.559,219.322c1.559-0.01,0.998-2.141,3.139-1.569
		c0.149,0.635,0.787,0.781,0.785,1.569c-0.166,0.881-0.871,1.221-1.569,1.569c-0.176-0.609-0.021-1.548-0.785-1.569
		c-0.167,0.881-0.871,1.221-1.569,1.569C158.559,220.368,158.559,219.846,158.559,219.322z"/>
	<path fill-rule="evenodd" clip-rule="evenodd" fill="#281B1A" d="M160.128,235.799c-10.279-0.681-15.488,11.469-21.971,9.417
		c0.001,4.033-1.368,2.63-3.138,5.492c0.9-0.993,1.576-6.187,0-7.062c-0.075,1.232,0.105,2.721-1.569,2.354
		c-0.083-2.738,2.169-7.194,0.785-8.632c-0.176,0.609-0.022,1.549-0.785,1.569c-0.217-1.375,2.209-3.914,0-4.708
		c-1.756,6.211-0.614-5.047,1.569-6.276c0.071,1.236,2.001,0.615,1.569,2.354c-0.908-1.911-3.695,0.876-1.569,1.569
		c1.334-2.035,0.902,4.268,2.354,4.708c-0.219-2.289,0.189-2.697,1.569-1.569c0.43-1.14-0.917-4.056,0.785-3.924
		c1.821,1.149-1.532,2.488,1.569,2.354c1.295-0.012,0.439-2.176,1.569-2.354c0.219,1.613,2.096,1.566,3.139,2.354
		c0.123-0.923-0.134-2.227,0.785-2.354c0.166,0.949,0.871,0.483,1.569,0c-0.113,0.928-1.397,1.78,0,2.354
		c1.556-2.004-0.814-3.607,0.785-4.707c0.433,1.396,0.403,3.259,1.569,3.922c1.611-1.234,1.926-6.83,3.923-3.138
		c1.342-1.573,1.143-6.36-0.784-7.062c-0.176,0.608-0.022,1.548-0.785,1.569c-0.042-1.351,0.604-2.013,1.569-2.354
		c0.452,1.641,1.945,2.24,1.569,4.708c2.091-0.639,2.587,2.68,3.923,1.569c-1.537-0.592-1.17-5.805,0.785-5.492
		c-2.039,4.511,1.256,0.841,1.569,4.708c3.079,0.201,4.991-0.765,6.277-2.354c-0.683,2.08,1.916,4.761,2.354,3.139
		c-0.899-0.197,1.012-4.156,2.354-4.708c0.321,1.891-1.434,1.706-0.784,3.924c1.046,1.306,4.445,0.263,5.492,1.569
		c0.65-1.786,0.217-3.041,2.354-4.708c0.192,3.224-1.178,4.854-0.784,6.276c0.165-0.948,0.87-0.482,1.569,0
		c0.338-2.539-1.033-6.785,1.568-7.062c3.74,5.682,10.88,3.585,12.555,4.708c1.021-1.948-2.302-3.256,0-3.923
		c-0.238,3.204,1.639,0.419,3.139,0.784c1.474,0.454-0.934,4.23,0.785,2.354c0.381-0.928,0.837-1.778,1.569-2.354
		c1.396,5.574,1.411-1.275,3.139,3.139c2.944-4.212,7.249-1.287,8.631,1.569c0.38-0.928,0.836-1.778,1.569-2.354
		c0.451,1.38-0.948,4.61,0.784,4.707c1.669-1.441,2.923,1.119,4.709,0.784c-0.135-1.172,0.279-2.895-0.785-3.138
		c-0.175,0.608-0.021,1.548-0.784,1.568c0.584-2.414-2.154-1.507-1.569-3.922c2.585,1.273,2.733,1.802,3.139,0
		c3.093,6.079,8.752,18.996,2.354,21.186c-0.869-2.081,2.773-4.763,0.785-3.139c-1.811-0.24-0.873,2.267-2.354,2.354
		c-1.288-3.515-3.468-3.869-5.493-7.847c-0.785,1.081-1.293-0.334-2.354,1.569c-3.732-3.924-10.334-4.042-18.048-5.493
		c-1.241-0.064-2.992,0.378-3.139-0.784C180.734,234.225,167.255,232.271,160.128,235.799z"/>
	<path fill-rule="evenodd" clip-rule="evenodd" fill="#8E5D4A" d="M124.035,229.522c-1.287,4.272-5.525,16.063-3.139,13.339
		c-1.91,5.443-1.839,10.344-4.708,13.34C117.219,245.02,116.899,235.521,124.035,229.522z"/>
	<path fill-rule="evenodd" clip-rule="evenodd" fill="#8E5D4A" d="M213.485,222.461c-1.594,2.037-3.771,2.861-5.493,1.569
		c2.754,0.688,0.815-2.034,0-2.354c-0.089,0.957-0.234,1.857-1.569,1.569c-0.079-0.88,1.141-1.222,0-1.569
		c-0.174,0.611-0.657,0.912-1.569,0.785c0-0.262,0-0.523,0-0.785c0.763-0.021,0.609-0.961,0.785-1.569
		c0.633,0.544,2.149,1.221,2.354,0c1.384,0.71,2.43,1.756,3.139,3.139c0.798-0.509,0.812-1.804,2.354-1.569
		C213.485,221.938,213.485,222.199,213.485,222.461z"/>
	<path fill-rule="evenodd" clip-rule="evenodd" fill="#8E5D4A" d="M160.128,235.799c7.126-3.528,20.606-1.574,31.385-0.784
		C181.096,235.32,169.327,234.274,160.128,235.799z"/>
	<path fill-rule="evenodd" clip-rule="evenodd" fill="#281B1A" d="M243.302,280.525c4.087-0.683-1.05,7.157-1.569,9.416
		c-2.106-2.525,0.564-5.164-0.785-7.846c1.054,0.516,1.462,1.676,1.569,3.139c0.248-2.292,0.581-6.607,1.569-10.202
		C244.993,276.646,245.546,280.43,243.302,280.525z"/>
	<path fill-rule="evenodd" clip-rule="evenodd" fill="#8E5D4A" d="M234.67,287.588c1.958,2.82,1.785,6.141,0.785,9.415
		C234.526,294.678,235.041,291.958,234.67,287.588z"/>
	<path fill-rule="evenodd" clip-rule="evenodd" fill="#281B1A" d="M224.471,261.693c1.086-9.556-0.17-14.625,3.139-22.756
		c-0.999,2.79,2.047,7.899-0.785,5.494c1.044,1.832,1.333,4.42,2.354,6.276c0.175-0.608,0.021-1.548,0.784-1.569
		c0.176,0.609,0.021,1.547,0.785,1.569c-1.84-6.561-2.42-14.593-1.569-19.617c0.934,2.546-0.268,6.224,2.354,3.139
		c-1.387,7.777-0.388,12.884,3.138,18.833c0.177-0.609,0.021-1.548,0.785-1.569c-0.784,1.918-1.379,6.526,0.784,3.139
		c-1.228,5.664,2.299,6.789-0.784,11.77c-1.387-1.696,1.462-10.521-2.353-8.631c2.1,1.748,1.585,5.84,0,7.847
		c-2.191-1.787-0.046-3.04-2.354-4.709c1.75,4.646-0.496,8.42,2.354,11.771c0.647-2.218-1.107-2.033-0.785-3.923
		c2.788,1.221,0.473-2.666,2.353-2.354c0.606,3.09-0.347,4.074,0.785,5.493c0.718-1.375,0.269-3.916,1.569-4.709
		c-1.187,12.408,0.813,9.621,0,21.187c-0.123-0.924,0.135-2.228-0.785-2.354c0.004,0.436-0.635,0.89-0.784,0
		c2.223-3.561-2.811-5.493-3.923-4.708c1.119,0.278,2.68,3.998,0.785,4.708c-2.129-1.902-0.38-4.179-3.924-5.493
		c-1.398,2.109,3.456,1.517,0.785,2.354c-0.881-0.166-1.223-0.872-1.569-1.569c0.188-1.12,1.291-1.324,1.569-2.354
		c-1.967-0.137-1.906,1.755-3.139,2.354c0.646,0.39,1.4,4.375-0.785,5.492c0-0.523,0-1.047,0-1.568
		c-1.08-8.188-0.361-17.938,0-20.402c-0.612-0.173-0.912-0.656-0.784-1.569C224.471,262.739,224.471,262.216,224.471,261.693z
		 M226.824,278.957c1.833-2.024,1.799-4.975,0-6.278c2.807-0.648-0.319-2.749,2.354-3.923c-1.721-3.627-1.422-5.967-0.785-8.632
		c-2.48,0.192-2.443,10.196-1.569,8.632c0.122-0.923-0.135-2.229,0.785-2.354C228.317,269.878,225.021,275.117,226.824,278.957z"/>
	<path fill-rule="evenodd" clip-rule="evenodd" fill="#5A352B" d="M224.471,263.263c-0.128,0.913,0.172,1.396,0.784,1.569
		c-0.361,2.464-1.08,12.214,0,20.402c-3.661,2.729-0.123-3.982-3.139-1.57c0-0.263,0-0.523,0-0.784
		c-0.289-1.336,0.611-1.481,1.569-1.569c-1.105-3.389,1.034-5.173-0.784-7.848c0.332,1.51-0.538,2.832-0.785,1.569
		c0-0.523,0-1.046,0-1.569C222.288,269.449,221.979,264.958,224.471,263.263z"/>
	<path fill-rule="evenodd" clip-rule="evenodd" fill="#281B1A" d="M130.312,256.985c0.194-0.852,1.56-0.532,1.569-1.569
		c2.326,1.14-1.034,3.061,0,5.492c-2.733-0.23,0.065-2.122-1.569-2.354C130.47,257.502,133.57,257.093,130.312,256.985z"/>
	<path fill-rule="evenodd" clip-rule="evenodd" fill="#5A352B" d="M227.609,266.401c-0.92,0.126-0.663,1.432-0.785,2.354
		c-0.874,1.564-0.911-8.439,1.569-8.632c-0.637,2.665-0.936,5.005,0.785,8.632c-2.674,1.174,0.452,3.274-2.354,3.923
		c1.799,1.304,1.833,4.254,0,6.278C225.021,275.117,228.317,269.878,227.609,266.401z"/>
	<path fill-rule="evenodd" clip-rule="evenodd" fill="#281B1A" d="M118.542,280.525c-0.713-0.353-0.805-2.625-0.785-3.139
		C118.146,267.275,120.937,275.594,118.542,280.525z"/>
	<path fill-rule="evenodd" clip-rule="evenodd" fill="#281B1A" d="M120.896,282.096c-0.668,0.143-0.741-0.308-0.785-0.785
		c-1.23,0.276,0.687,1.381-0.784,1.569c0.342,1.164,1.003-0.311,2.354,0c0.599,2.419-0.972,9.3,0,7.062
		c0.986,0.193,0.791,1.559,0,1.568c-0.523,0-1.047,0-1.569,0c2.849-4.813-1.833-6.414-2.354-10.199
		C118.336,280.755,121.598,279.355,120.896,282.096z"/>
	<path fill-rule="evenodd" clip-rule="evenodd" fill="#281B1A" d="M120.896,274.248c0.785,0,1.569,0,2.354,0
		c0.899,3.254-1.651,3.058-1.569,5.493C119.926,279.402,121.363,275.873,120.896,274.248z"/>
	<polygon points="182.76,350.58 182.893,349.086 179.836,348.814 177.03,348.83 173.951,347.78 170.927,348.416 168.17,347.432 
		165.027,347.501 162.132,347.022 159.147,346.907 156.534,346.417 153.67,344.946 150.576,344.869 147.979,343.789 145.058,342.92 
		145.046,342.916 142.104,342.065 139.233,341.611 136.654,340.477 133.855,339.336 130.982,338.271 127.976,337.478 
		125.181,336.896 122.9,335.612 120.457,333.511 117.518,332.496 114.966,330.853 112.129,330.071 109.912,328.061 107.093,327.078 
		105.105,324.924 102.434,323.378 100.044,321.409 97.246,320.301 95.223,318.287 92.635,316.585 90.477,314.959 88.651,312.302 
		85.825,310.89 84.063,308.708 81.859,306.704 79.955,304.309 77.6,302.483 75.928,300.112 73.805,297.941 72.033,295.706 
		70.377,293.31 68.805,290.827 67.234,288.192 65.362,285.818 63.668,283.299 61.635,281.137 60.366,278.826 59.48,275.846 
		57.731,273.084 55.945,270.857 55.039,268.19 53.771,265.383 52.482,262.815 51.668,260.026 50.625,257.141 49.43,254.402 
		48.4,251.722 47.549,248.692 45.944,246.289 45.966,243.357 44.759,240.262 43.61,237.661 43.27,234.935 43.02,231.954 
		42.704,228.811 41.754,226.004 41.71,223.052 40.927,220.13 40.856,217.246 40.48,214.262 40.359,211.484 40.827,208.53 
		40.862,205.444 39.362,205.428 40.862,205.464 40.936,202.395 40.643,199.519 41.136,196.744 41.578,193.52 41.026,190.532 
		41.635,187.767 41.75,184.903 42.964,181.972 42.671,178.916 43.899,176.219 44.007,173.013 44.577,170.244 45.313,167.441 
		46.222,164.664 47.23,161.905 48.439,159.058 49.022,156.335 51.135,153.807 51.24,150.632 53.04,148.477 54.397,145.39 
		54.908,142.362 56.094,139.978 57.799,137.509 59.147,134.869 60.919,132.46 62.272,129.914 64.384,127.752 65.895,125.059 
		67.593,122.768 69.418,120.489 71.481,118.075 72.663,115.449 75.192,113.67 76.495,110.674 78.382,108.769 80.62,106.683 
		82.479,104.414 84.837,102.565 86.698,100.339 89.244,98.863 91.621,96.698 93.615,94.465 95.597,92.777 98.678,91.732 
		100.772,89.356 103.228,88.098 105.969,86.504 108.301,84.436 110.514,82.715 112.971,81.502 115.811,80.555 118.807,79.231 
		121.191,77.172 123.59,75.805 126.071,74.753 129.315,74.335 131.87,72.48 134.618,71.826 137.474,70.65 140.215,69.583 
		143.015,68.636 143.017,68.635 145.623,67.749 148.751,67.721 151.702,66.495 154.397,65.84 157.227,65.521 160.371,65.39 
		163.295,64.479 166.094,64.188 169.062,63.928 169.051,63.929 172.044,63.688 175.011,63.364 177.783,63.148 180.822,63.64 
		183.915,63.211 186.748,63.222 189.605,63.4 192.677,63.905 195.834,63.616 198.601,63.529 201.492,64.202 204.306,64.263 
		207.023,65.679 210.186,66.073 213.195,66.698 216.225,66.677 218.941,67.355 221.781,68.022 224.521,69.041 227.234,69.958 
		230.004,71.534 232.955,71.921 235.472,73.681 238.701,74.102 241.299,75.143 241.313,75.148 244.034,76.206 246.428,77.437 
		248.784,79.709 251.733,80.54 253.883,82.533 256.826,83.93 259.606,85.048 261.975,86.294 263.945,88.371 266.27,90.481 
		268.711,92.242 270.998,94.083 270.992,94.079 273.471,96.095 276.265,97.221 278.023,99.173 280.136,101.673 282.808,103.108 
		284.474,105.4 286.725,107.457 288.547,109.582 290.228,112.104 292.265,114.343 294.078,116.68 296.032,118.901 297.814,121.339 
		299.993,123.538 301.753,125.463 302.526,128.535 304.663,130.833 305.771,133.555 307.729,136.134 309.476,138.169 
		309.974,141.093 311.488,143.913 312.756,146.485 313.811,149.262 315.171,152.062 316.699,154.623 317.801,157.187 
		318.543,159.886 318.999,162.9 319.971,165.962 321.318,168.604 321.883,171.262 322.242,174.266 322.993,177.365 324.113,179.989 
		324.035,182.99 325.116,185.968 325.48,188.628 325.309,191.474 324.967,194.678 325.585,197.774 325.891,200.696 326.26,203.475 
		325.818,206.275 325.451,209.484 325.933,212.426 325.389,215.299 325.564,218.455 325.588,221.167 324.646,224.026 
		324.528,227.193 324.27,230.103 323.908,232.864 322.881,235.552 321.749,238.618 321.782,241.583 320.346,244.248 320.244,247.25 
		318.602,249.741 318.029,252.895 317.098,255.644 316.219,258.409 315.04,261.084 313.857,263.891 312.968,266.481 
		310.824,268.861 310.169,271.996 308.614,274.34 307.283,277.066 305.839,279.583 304.404,282.027 302.223,284.338 
		301.216,287.149 298.999,289.006 297.179,291.699 295.783,294.18 293.67,296.17 291.813,298.593 289.98,300.696 287.46,302.651 
		286,305.336 283.735,306.981 281.514,309.208 279.55,311.447 277.616,313.313 274.697,314.727 272.865,317.451 270.898,319.026 
		268.025,320.104 265.348,322.027 263.169,324.259 261.116,326.126 258.59,327.416 256.072,328.854 253.239,329.936 250.59,331.521 
		248.074,332.927 245.437,334.092 242.621,335.23 239.906,336.687 237.511,338.065 234.481,338.606 231.96,340.234 229.013,340.582 
		226.065,342.07 223.711,343.363 220.666,343.353 217.688,344.717 214.993,345.614 212.199,346.246 209.313,346.686 
		206.379,347.057 203.311,347.349 200.503,348.096 197.634,347.967 194.432,348.178 191.746,348.883 188.754,348.041 
		185.498,348.753 182.587,349.09 182.76,350.58 182.893,349.086 182.76,350.58 182.932,352.07 185.991,351.716 188.662,351.132 
		191.719,351.992 194.914,351.152 197.664,350.971 200.828,351.113 203.842,350.312 206.715,350.038 209.727,349.657 
		212.756,349.196 215.797,348.509 218.792,347.511 221.316,346.354 224.475,346.365 227.463,344.725 229.891,343.5 233.002,343.133 
		235.603,341.454 238.553,340.927 241.358,339.312 243.898,337.949 246.609,336.854 249.412,335.615 252.097,334.115 
		254.553,332.646 257.357,331.576 260.018,330.055 262.839,328.614 265.258,326.414 267.309,324.313 269.453,322.771 272.4,321.667 
		275.098,319.506 276.733,317.074 279.355,315.805 281.72,313.522 283.705,311.259 285.688,309.271 288.313,307.364 
		289.797,304.636 292.051,302.887 294.133,300.497 295.904,298.188 298.174,296.05 299.732,293.279 301.249,291.035 
		303.766,288.927 304.835,285.941 306.818,283.841 308.434,281.09 309.938,278.467 311.227,275.829 312.986,273.174 
		313.595,270.268 315.605,268.034 316.665,264.953 317.803,262.253 316.421,261.671 317.793,262.275 319.029,259.469 
		319.959,256.547 318.529,256.093 319.949,256.574 320.943,253.645 321.443,250.881 323.214,248.196 323.32,245.053 
		324.791,242.324 324.755,239.138 325.699,236.581 324.292,236.062 325.693,236.598 326.837,233.604 327.251,230.438 
		327.524,227.376 327.629,224.561 328.592,221.636 328.563,218.346 328.404,215.498 328.979,212.464 328.479,209.414 
		328.792,206.68 329.291,203.51 328.868,200.331 328.555,197.324 327.999,194.54 328.3,191.716 328.493,188.511 328.045,185.244 
		327.049,182.498 327.129,179.413 325.852,176.42 325.2,173.732 324.846,170.774 324.171,167.594 322.757,164.821 321.929,162.213 
		321.482,159.261 320.638,156.188 319.377,153.256 317.812,150.633 316.571,148.078 315.512,145.29 314.148,142.523 
		312.849,140.104 312.293,136.846 310.068,134.253 308.4,132.055 307.234,129.191 305.248,127.057 304.479,123.997 302.172,121.476 
		300.105,119.39 298.374,117.021 296.395,114.772 294.563,112.412 292.598,110.25 290.943,107.769 288.882,105.364 286.723,103.391 
		284.83,100.789 282.06,99.301 280.291,97.208 278.029,94.697 275.012,93.481 272.885,91.751 272.879,91.747 270.535,89.86 
		268.162,88.147 266.044,86.224 263.809,83.87 260.868,82.321 258.029,81.181 255.585,80.02 253.244,77.849 250.324,77.026 
		248.193,74.971 245.264,73.466 242.4,72.353 241.857,73.75 242.416,72.358 239.466,71.176 236.588,70.801 234.073,69.042 
		230.978,68.636 228.469,67.208 225.535,66.217 222.65,65.145 219.67,64.445 216.584,63.675 213.495,63.696 210.682,63.112 
		207.93,62.769 205.07,61.279 201.869,61.209 198.9,60.519 195.645,60.62 192.785,60.883 189.943,60.415 186.854,60.223 
		183.715,60.21 180.857,60.606 177.908,60.129 174.731,60.376 171.761,60.701 168.811,60.938 168.799,60.939 165.808,61.202 
		162.687,61.526 159.853,62.409 156.996,62.529 153.873,62.88 150.765,63.636 148.14,64.727 145.115,64.753 142.051,65.795 
		142.054,65.794 139.192,66.762 136.366,67.862 133.696,68.962 130.592,69.7 128.172,71.458 125.279,71.83 122.258,73.111 
		119.451,74.711 117.184,76.668 114.729,77.754 111.826,78.722 108.913,80.16 106.382,82.127 104.202,84.062 101.791,85.463 
		98.897,86.947 96.956,89.148 94.088,90.121 91.516,92.313 89.487,94.583 87.461,96.429 84.735,98.01 82.737,100.4 80.367,102.256 
		78.426,104.627 76.296,106.612 73.968,108.962 72.777,111.701 70.265,113.469 68.922,116.452 67.114,118.567 65.214,120.939 
		63.371,123.427 61.961,125.938 59.825,128.127 58.372,130.86 56.587,133.286 55.217,135.97 53.503,138.451 52.023,141.425 
		51.501,144.522 50.464,146.88 48.275,149.501 48.17,152.675 46.244,154.981 45.566,158.15 44.437,160.81 43.39,163.673 
		42.436,166.587 41.653,169.566 41.018,172.659 40.921,175.521 39.608,178.402 39.906,181.514 38.773,184.249 38.648,187.379 
		37.966,190.479 38.541,193.59 38.173,196.27 37.616,199.405 37.931,202.507 37.862,205.392 37.83,208.276 37.349,211.316 
		37.488,214.511 37.86,217.468 37.936,220.56 38.715,223.468 38.761,226.52 39.753,229.449 40.034,232.249 41.526,232.1 
		40.031,232.225 40.285,235.246 40.688,238.471 41.99,241.42 42.962,243.91 42.937,247.188 44.79,249.963 45.55,252.667 
		46.651,255.534 47.837,258.251 48.814,260.957 49.679,263.919 51.062,266.674 52.243,269.29 53.274,272.323 55.288,274.833 
		56.724,277.099 57.582,279.988 59.188,282.915 61.313,285.174 62.943,287.597 64.759,289.898 66.242,292.388 67.879,294.973 
		69.618,297.488 71.555,299.932 73.615,302.038 75.407,304.58 77.832,306.458 79.659,308.759 81.873,310.771 83.901,313.282 
		86.618,314.64 88.28,317.061 90.905,319.039 93.323,320.629 95.566,322.861 98.5,324.024 100.717,325.851 103.21,327.293 
		105.398,329.664 108.348,330.692 110.643,332.773 113.727,333.623 116.198,335.215 118.936,336.159 121.168,338.08 
		124.114,339.738 127.29,340.399 130.079,341.136 132.777,342.136 135.483,343.239 138.381,344.514 141.447,344.999 
		144.213,345.799 144.202,345.795 146.975,346.62 149.941,347.854 152.909,347.929 155.55,349.284 158.809,349.896 161.828,350.013 
		164.815,350.507 167.683,350.443 170.715,351.525 173.763,350.886 176.541,351.832 179.713,351.815 182.781,352.088 
		182.932,352.07 	"/>
	<path fill-rule="evenodd" clip-rule="evenodd" fill="#5A3829" d="M166.894,7.292c2.864,2.306,5.276,5.021,8.354,7.135
		C171.813,15.873,168.407,10.354,166.894,7.292z"/>
	<path fill-rule="evenodd" clip-rule="evenodd" fill="#5A3829" d="M193.309,17.802c0.578,1.157,2.164,1.399,3.234,2.11
		c-0.507,1.373-2.111,1.343-3.545,1.532C192.051,20.243,193.48,19.497,193.309,17.802z"/>
	<path fill-rule="evenodd" clip-rule="evenodd" fill="#A0745E" d="M142.137,47.376c0.635,3.757-2.341,7.049-3.821,9.764
		c-2.153-0.85-1.129-4.578-2.461-6.172C137.162,48.765,139.447,47.812,142.137,47.376z M137.166,50.622
		c0.596,1.14,0.587,2.829,0.921,4.207c1.58-0.784,4.31-5.121,2.701-6.649C139.833,49.315,137.767,49.033,137.166,50.622z"/>
	<path fill-rule="evenodd" clip-rule="evenodd" fill="#A0745E" d="M191.157,63.025c-2.099,1.539-0.661,5.105-3.124,6.613
		c-0.989,0.056-0.358-1.356-1.154-1.475C189.633,67.114,187.559,62.998,191.157,63.025z"/>
	<path fill-rule="evenodd" clip-rule="evenodd" fill="#A0745E" d="M143.471,66.754c2.741-0.936,5.275,1.934,8.356,2.089
		C148.855,69.987,145.838,67.555,143.471,66.754z"/>
	<path fill-rule="evenodd" clip-rule="evenodd" fill="#A0745E" d="M178.941,71.156c-3.147,1.813-6.886-0.071-10.708,0.462
		C171.43,69.9,175.033,71.385,178.941,71.156z"/>
	<path fill-rule="evenodd" clip-rule="evenodd" fill="#A0745E" d="M144.721,42.094c7.425-9.874,9.894-26.077,17.551-35.654
		c10.005-8.253,21.011,7.705,30.384,9.013c11.165,1.558,20.625-11.619,30.931-2.406c10.015,8.952,6.696,38.964,14.908,50.349
		c7.14-3.99,22.589-1.744,33.893,2.891c2.024,0.83,3.586,3.197,5.62,4.149c4.972,2.326,9.999,2.69,11.28,7.842
		c-12.935,5.34-30.094,2.23-45.374,1.633c-3.079-0.122-6.323,1.159-9.476,1.026c-19.604-0.828-40.264-2.87-59.854-3.731
		c-14.75-0.647-28.89-2.89-41.632-7.221c-7.12-5.322-11.957-11.418-17.087-19.804c-3.83-6.26-13.898-22.673-2.252-28.629
		C127.751,14.321,140.116,33.317,144.721,42.094z M194.473,59.181c-1.041-0.583-1.65,1.833-2.157,0.274
		c1.124-0.585,1.596-2.002,3.16-2.024c0.792,1.383,1.08,3.222,3.117,3.477c-0.009-1.652-0.46-2.25,0.312-3.643
		c-4.654-1.09-6.784-9.072-3.65-12.236c1.938-0.247,1.651,2.914,3.271,1.655c-0.02-2.362-3.066-1.981-3.964-3.548
		c-1.237,0.576,0.722,2.11-1.003,1.749c0.221-2.002,0.899-2.962,0.852-4.973c1.543-0.139-0.221,2.721,1.5,2.422
		c0.851-2.312,1.213-1.421,2.581-0.238c0.925-1.85,0.72-5.141,1.469-7.214c-1.584-0.051-2.771-1.991-2.114-5.225
		c-2.4-0.625-3.379-2.539-3.848-4.915c-0.822-0.207-0.894,0.544-1.35,0.802c-0.197-1.361-1.118-2.067-1.885-2.913
		c-10.471-0.831-17.501-4.742-25.762-8.161c-1.002,1.245-2.742,1.548-4.816,1.424c-4.277,10.359-8.792,20.415-15.581,27.566
		c-5.102-10.597-15.399-26.727-31.185-19.631c0.784,2.635-1.279,2.992-2.122,4.864c1.885,7.478,4.562,16.06,8.766,22.305
		c-3.396-3.364-5.778-7.648-8.852-11.304c4.412,11.547,12.96,19.343,22.514,26.23c0.205,1.608-0.78,1.696-0.696,3.151
		c12.2,4.949,27.398,6.434,45.06,7.055c31.405,1.104,59.263,5.575,78.727,2.589c-0.178-2.411,4.676-1.871,6.666-3.101
		c-0.543-0.348-0.706-1.04-0.691-1.894c-1.973,1.499-5.035,3.499-7.012,2.154c1.076-2.186,3.378,0.301,4.43-1.916
		c-14.009-0.389-29.3,1.225-42.175-0.847c3.369-1.083,8.957,0.668,11.633-1.301c-4.819-0.812-11.563-1.499-14.637,1.503
		c0.82-1.725-1.021-1.037-1.116-1.929c-9.594,1.368-21.854,0.512-31.161,0.093c3.032-0.963,6.886-2.085,9.477-1.026
		c-0.817-1.36-1.162-3.147-1.268-5.153c0.913-0.854,1.604-1.991,2.775-2.515c1.232,1.359-1.504,1.827-0.271,3.187
		c0.564,0.049,1.13,0.096,1.694,0.145c0.7-0.814,1.609-3.971,1.235-4.481C195.741,62.474,194.732,60.093,194.473,59.181z
		 M175.247,14.427c-3.077-2.113-5.489-4.829-8.354-7.135C168.407,10.354,171.813,15.873,175.247,14.427z M192.998,21.444
		c1.434-0.189,3.038-0.159,3.545-1.532c-1.07-0.711-2.656-0.953-3.234-2.11C193.48,19.497,192.051,20.243,192.998,21.444z"/>
	<path fill-rule="evenodd" clip-rule="evenodd" fill="#5A3829" d="M196.396,61.638c0.374,0.51-0.535,3.667-1.235,4.481
		c-0.564-0.049-1.13-0.096-1.694-0.145c-1.232-1.36,1.504-1.828,0.271-3.187c-1.171,0.523-1.862,1.661-2.775,2.515
		c0.105,2.006,0.45,3.793,1.268,5.153c-2.591-1.059-6.444,0.063-9.477,1.026c9.307,0.419,21.567,1.275,31.161-0.093
		c0.096,0.893,1.937,0.205,1.116,1.929c3.073-3.002,9.817-2.315,14.637-1.503c-2.676,1.97-8.264,0.219-11.633,1.301
		c12.875,2.072,28.166,0.458,42.175,0.847c-1.052,2.216-3.354-0.27-4.43,1.916c1.977,1.345,5.039-0.655,7.012-2.154
		c-0.015,0.854,0.148,1.546,0.691,1.894c-1.99,1.23-6.844,0.69-6.666,3.101c-19.464,2.986-47.321-1.485-78.727-2.589
		c-17.662-0.621-32.86-2.106-45.06-7.055c-0.084-1.455,0.9-1.542,0.696-3.151c-9.553-6.887-18.102-14.683-22.514-26.23
		c3.073,3.656,5.455,7.94,8.852,11.304c-4.205-6.245-6.881-14.827-8.766-22.305c0.842-1.872,2.906-2.229,2.122-4.864
		c15.786-7.096,26.083,9.034,31.185,19.631c6.789-7.151,11.304-17.207,15.581-27.566c2.074,0.124,3.814-0.179,4.816-1.424
		c8.261,3.418,15.292,7.33,25.762,8.161c0.767,0.845,1.688,1.551,1.885,2.913c0.456-0.258,0.527-1.009,1.35-0.802
		c0.469,2.376,1.447,4.29,3.848,4.915c-0.656,3.234,0.53,5.174,2.114,5.225c-0.749,2.074-0.544,5.365-1.469,7.214
		c-1.368-1.183-1.73-2.073-2.581,0.238c-1.721,0.299,0.043-2.561-1.5-2.422c0.048,2.011-0.631,2.971-0.852,4.973
		c1.725,0.361-0.234-1.173,1.003-1.749c0.897,1.567,3.944,1.186,3.964,3.548c-1.62,1.259-1.333-1.902-3.271-1.655
		c-3.134,3.164-1.004,11.146,3.65,12.236c-0.771,1.394-0.32,1.991-0.312,3.643c-2.037-0.255-2.325-2.093-3.117-3.477
		c-1.564,0.021-2.036,1.439-3.16,2.024c0.507,1.559,1.116-0.857,2.157-0.274C194.732,60.093,195.741,62.474,196.396,61.638z
		 M135.855,50.969c1.332,1.594,0.308,5.322,2.461,6.172c1.48-2.715,4.456-6.007,3.821-9.764
		C139.447,47.812,137.162,48.765,135.855,50.969z M186.879,68.164c0.796,0.119,0.165,1.531,1.154,1.475
		c2.463-1.508,1.025-5.075,3.124-6.613C187.559,62.998,189.633,67.114,186.879,68.164z M140.621,65.135
		c-3.4-1.402-6.903-4.942-10.242-5.002C133.78,61.536,137.144,65.202,140.621,65.135z M151.827,68.843
		c-3.081-0.155-5.615-3.024-8.356-2.089C145.838,67.555,148.855,69.987,151.827,68.843z M168.233,71.619
		c3.822-0.534,7.561,1.35,10.708-0.462C175.033,71.385,171.43,69.9,168.233,71.619z"/>
	<path fill-rule="evenodd" clip-rule="evenodd" fill="#A0745E" d="M130.379,60.133c3.339,0.06,6.841,3.6,10.242,5.002
		C137.144,65.202,133.78,61.536,130.379,60.133z"/>
</g>
</svg>
