<?xml version="1.0" encoding="utf-8"?>
<!-- Generator: Adobe Illustrator 15.0.0, SVG Export Plug-In . SVG Version: 6.00 Build 0)  -->
<!DOCTYPE svg PUBLIC "-//W3C//DTD SVG 1.1//EN" "http://www.w3.org/Graphics/SVG/1.1/DTD/svg11.dtd">
<svg version="1.1" id="Layer_1" xmlns="http://www.w3.org/2000/svg" xmlns:xlink="http://www.w3.org/1999/xlink" x="0px" y="0px"
	 width="250px" height="250px" viewBox="0 0 250 250" enable-background="new 0 0 250 250" xml:space="preserve">
<path d="M97.139,91.735c0.24-15.489,0.208-30.937,4.577-45.933c3.365-11.547-12.439-17.07-18.366-8.772
	c-2.478,0.457-4.761,1.882-6.568,3.914c-0.608,0.106-1.215,0.298-1.819,0.529c-7.508,0.225-13.458,6.512-18.722,11.208
	c-5.076,4.53-11.009,9.206-12.727,15.917c-0.614,0.743-1.239,1.483-1.882,2.208c-7.093,7.989-12.716,15.389-16.227,25.605
	c-0.943,2.747-1.646,5.576-2.225,8.444c-0.706,0.682-1.289,1.494-1.693,2.444c-1.965,4.625-2.875,8.814-2.521,13.856
	c0.04,0.555,0.105,1.115,0.18,1.677c-5.61,9.936,0.412,23.998-0.254,34.544c-0.248,3.937,1.382,6.706,3.817,8.328
	c3.722,14.376,10.873,28.267,19.589,39.943c8.851,11.854,21.158,25.342,36.868,26.436c1.174,3.741,4.297,6.776,9.398,6.776
	c5.891,0,9.201-4.026,9.925-8.525c0.881-2.938,0.584-6.269-0.904-8.909c-4.642-28.097-5.061-57.7-3.373-86.064
	C95.08,120.768,96.912,106.382,97.139,91.735z"/>
<path fill="#DC2826" d="M231.497,131.981c-1.196-17.627-7.438-34.115-13.031-51.486c-0.982-3.05-3.646-5.66-6.733-6.958
	c-1.821-3.811-3.938-7.45-7.533-10.552c-9.589-8.274-19.936-15.819-30.191-23.238c-0.975-0.705-1.982-1.169-2.993-1.43
	c-2.317-3.119-5.623-4.108-8.799-3.622c-5.78-5.042-17.433-2.606-17.511,7.383c-0.055,7.23,1.324,14.268,2.134,21.425
	c0.961,8.495,0.019,17.348-0.039,25.884c-0.115,16.742,0.196,33.46,0.813,50.189c0.601,16.291,1.169,32.376,0.142,48.664
	c-0.504,7.978-0.799,15.83-0.653,23.822c0.063,3.549-0.334,7.127,0.373,10.641c0.24,1.198,0.873,2.68,1.483,3.999
	c-2.145,9.004,9.571,18.29,17.234,9.895c0.956-1.049,1.814-2.12,2.513-3.256c9.366-3.048,17.188-8.919,25.021-14.839
	c9.178-6.942,15.118-15.921,22.793-24.304c2.194-2.397,2.995-5.06,2.825-7.577c0.436-0.513,0.81-1.051,1.122-1.609
	c2.245-2.542,4.563-5.162,6.059-8.213c2.101-4.289,2.564-8.881,2.981-13.583c0.085-0.958,0.018-1.844-0.146-2.675
	c0.946-1.457,1.72-3.083,2.393-4.932c0.838-2.305,0.484-5.105,0.752-7.605c0.998-1.818,1.77-3.733,2.149-5.916
	C235.403,137.787,233.958,134.25,231.497,131.981z"/>
<path fill="#FBD601" d="M156.494,200.542c-0.716-12.72-1.337-25.442-1.873-38.172c-0.877-20.802-1.393-41.617-1.55-62.437
	c0.211-0.291,0.41-0.592,0.593-0.906c1.086-1.881,1.353-3.672,1.262-5.603c1.486-2.377,1.962-5.402,1.495-8.449
	c-1.21-7.88-3.634-15.472-5.253-23.267c-0.766-3.683-1.189-7.64-0.275-11.311c0.65-2.618,2.578-4.82,3.104-7.583
	c1.539-8.107-5.588-13.305-11.798-12.931c-0.983-0.309-2.073-0.485-3.275-0.487c-10.352-0.024-20.7-0.268-31.023,0.689
	c-0.55,0.051-1.089,0.142-1.622,0.253c-5.044-1.502-10.743,0.343-11.875,7.014C92.206,50.3,93.031,63.083,93.407,76.13
	c0.4,13.898-0.87,27.96-1.642,41.833c-1.656,29.728-3.532,59.436-3.589,89.222c-0.002,1.222,0.17,2.325,0.483,3.323
	c-0.051,0.271-0.102,0.541-0.139,0.813c-1.058,7.695-3.021,18.253,1.006,25.345c4.69,8.258,17.759,8.698,25.975,9.226
	c17.505,1.132,42.934,4.227,43.325-20.177C158.958,217.516,156.956,208.774,156.494,200.542z"/>
<circle fill="#FFFFFF" stroke="#000000" stroke-miterlimit="10" cx="88.479" cy="102.709" r="15.646"/>
<ellipse fill="#FFFFFF" stroke="#000000" stroke-miterlimit="10" cx="151.471" cy="105.022" rx="15.187" ry="15.646"/>
<line fill="none" stroke="#FFD400" stroke-width="3" stroke-miterlimit="10" x1="150.18" y1="8.571" x2="146.789" y2="20.311"/>
<line fill="none" stroke="#FFD400" stroke-width="3" stroke-miterlimit="10" x1="125.719" y1="18.294" x2="126.557" y2="7.021"/>
<line fill="none" stroke="#FFD400" stroke-width="3" stroke-miterlimit="10" x1="144.05" y1="20.198" x2="144.89" y2="8.925"/>
<line fill="none" stroke="#FFD400" stroke-width="3" stroke-miterlimit="10" x1="159.944" y1="7.788" x2="155.426" y2="21.335"/>
<line fill="none" stroke="#FFD400" stroke-width="3" stroke-miterlimit="10" x1="155.915" y1="18.412" x2="154.059" y2="7.139"/>
<line fill="none" stroke="#FFD400" stroke-width="3" stroke-miterlimit="10" x1="135.146" y1="18.847" x2="131.141" y2="7.139"/>
<line fill="none" stroke="#FFD400" stroke-width="3" stroke-miterlimit="10" x1="116.431" y1="5.806" x2="123.057" y2="15.585"/>
<line fill="none" stroke="#FFD400" stroke-width="3" stroke-miterlimit="10" x1="131.141" y1="18.741" x2="142.403" y2="6.574"/>
<line fill="none" stroke="#FFD400" stroke-width="3" stroke-miterlimit="10" x1="136.254" y1="3.937" x2="140.898" y2="22.049"/>
<line fill="none" stroke="#FFD400" stroke-width="3" stroke-miterlimit="10" x1="97.716" y1="5.353" x2="100.227" y2="19.413"/>
<line fill="none" stroke="#FFD400" stroke-width="3" stroke-miterlimit="10" x1="101.077" y1="18.201" x2="103.283" y2="7.114"/>
<line fill="none" stroke="#FFD400" stroke-width="3" stroke-miterlimit="10" x1="109.421" y1="18.653" x2="106.964" y2="3.937"/>
<line fill="none" stroke="#FFD400" stroke-width="3" stroke-miterlimit="10" x1="97.716" y1="16.32" x2="90.339" y2="6.385"/>
<line fill="none" stroke="#FFD400" stroke-width="3" stroke-miterlimit="10" x1="114.552" y1="3.341" x2="111.16" y2="21.729"/>
<polyline fill="#E2E2E1" stroke="#020202" stroke-miterlimit="10" points="147.683,30.611 157.14,31.012 162.196,11.525 
	151.284,11.915 147.683,30.611 95.379,30.422 87.47,11.782 151.284,11.915 "/>
<g>
	<polygon fill="none" stroke="#000000" stroke-width="3" stroke-miterlimit="10" points="124.641,243.924 121.655,244.371 
		118.665,244.396 115.709,243.89 112.752,243.517 109.856,242.723 106.793,243.033 103.921,242.158 101.004,241.553 98.171,240.606 
		95.327,239.741 92.416,239.099 89.626,238.061 86.697,237.402 84.137,235.782 81.437,234.552 78.437,233.954 75.867,232.423 
		73.363,230.793 70.568,229.688 68.277,227.726 65.841,226.026 63.067,224.818 60.757,222.929 58.279,221.267 56.311,218.972 
		53.67,217.483 51.569,215.365 49.673,213.046 47.15,211.357 45.298,209.009 43.337,206.77 41.697,204.267 39.757,202.017 
		37.917,199.685 36.087,197.338 34.604,194.755 32.892,192.321 30.953,190.005 29.82,187.224 28.824,184.393 26.907,182.016 
		26.284,179.032 25.056,176.33 23.814,173.625 22.785,170.835 21.691,168.06 20.74,165.231 20.138,162.309 19.253,159.453 
		18.598,156.539 18.308,153.562 18.079,150.587 17.533,147.654 17.463,144.671 17.19,141.707 16.915,138.735 16.923,135.755 
		16.917,132.773 17.125,129.8 17.129,126.81 17.45,123.842 18.5,120.976 18.164,117.911 19.269,115.084 19.971,112.195 
		20.006,109.139 21.546,106.471 22.117,103.541 22.591,100.556 23.881,97.849 25.26,95.194 26.019,92.279 27.298,89.584 
		28.749,86.975 30.45,84.51 31.933,81.938 33.112,79.176 34.662,76.628 36.45,74.241 38.382,71.966 40.287,69.684 41.938,67.198 
		43.588,64.687 45.537,62.422 48.194,60.842 50.002,58.447 52.019,56.242 54.672,54.75 56.636,52.467 59.027,50.692 61.613,49.188 
		63.993,47.415 66.178,45.331 68.81,43.92 71.445,42.533 74.124,41.239 76.663,39.684 79.281,38.264 82.056,37.18 84.59,35.516 
		87.608,35.061 90.191,33.434 93.239,33.18 96.056,32.23 98.793,30.919 101.749,30.452 104.681,29.904 107.601,29.293 
		110.565,28.958 113.503,28.4 116.49,28.305 119.46,28 122.441,27.795 125.429,28 128.399,28.367 131.385,28.222 134.359,28.405 
		137.312,28.831 140.313,28.873 143.18,29.822 146.074,30.511 149.098,30.6 151.945,31.509 154.814,32.305 157.639,33.245 
		160.481,34.126 163.314,35.05 165.923,36.539 168.967,36.993 171.644,38.324 174.356,39.575 176.8,41.334 179.43,42.733 
		182.141,44.014 184.663,45.613 186.809,47.757 189.086,49.675 191.93,50.855 194.102,52.916 196.064,55.197 198.715,56.704 
		200.788,58.854 202.962,60.9 204.671,63.383 206.616,65.631 208.828,67.66 210.519,70.123 212.5,72.361 213.743,75.126 
		215.914,77.254 217.467,79.802 218.705,82.53 219.977,85.223 221.86,87.598 222.891,90.412 223.893,93.221 225.504,95.773 
		226.381,98.629 227.049,101.545 228.64,104.16 229.481,107.026 229.908,109.998 230.599,112.895 230.965,115.857 231.844,118.725 
		232.03,121.708 232.617,124.637 232.88,127.607 232.565,130.608 232.797,133.572 232.74,136.544 233.339,139.532 233.21,142.516 
		232.98,145.494 232.098,148.398 231.786,151.354 231.913,154.391 230.956,157.246 230,160.083 229.831,163.102 228.532,165.831 
		228.394,168.898 227.276,171.674 225.972,174.368 224.729,177.074 223.765,179.894 222.471,182.573 221.109,185.217 
		219.493,187.721 218.26,190.435 217.077,193.199 215.472,195.714 213.819,198.201 211.896,200.488 210.138,202.896 
		208.178,205.143 206.188,207.356 204.233,209.602 201.867,211.449 200.241,214.033 197.639,215.609 195.489,217.657 
		193.656,220.104 191.078,221.655 188.633,223.355 186.471,225.458 183.643,226.587 181.188,228.262 178.625,229.771 
		175.951,231.072 173.448,232.702 170.747,233.95 168.055,235.218 165.293,236.322 162.554,237.49 159.789,238.604 156.881,239.29 
		154.147,240.555 151.182,241.004 148.315,241.829 145.35,242.192 142.428,242.765 139.521,243.469 136.483,243.127 133.59,244.155 
		130.596,244.053 127.621,244.277 	"/>
</g>
</svg>
