<?xml version="1.0" encoding="utf-8"?>
<!-- Generator: Adobe Illustrator 15.0.0, SVG Export Plug-In . SVG Version: 6.00 Build 0)  -->
<!DOCTYPE svg PUBLIC "-//W3C//DTD SVG 1.1//EN" "http://www.w3.org/Graphics/SVG/1.1/DTD/svg11.dtd">
<svg version="1.1" id="Layer_1" xmlns="http://www.w3.org/2000/svg" xmlns:xlink="http://www.w3.org/1999/xlink" x="0px" y="0px"
	 width="350px" height="350px" viewBox="0 0 350 350" enable-background="new 0 0 350 350" xml:space="preserve">
<path d="M134.141,127.116c0.344-22.295,0.299-44.531,6.587-66.118c4.844-16.621-17.905-24.57-26.436-12.626
	c-3.568,0.658-6.853,2.71-9.455,5.634c-0.876,0.153-1.749,0.43-2.619,0.762c-10.807,0.324-19.372,9.373-26.949,16.133
	c-7.307,6.521-15.847,13.251-18.319,22.912c-0.884,1.069-1.784,2.135-2.709,3.179c-10.209,11.499-18.303,22.15-23.358,36.857
	c-1.358,3.954-2.369,8.025-3.202,12.154c-1.017,0.981-1.856,2.151-2.438,3.517c-2.828,6.658-4.138,12.688-3.629,19.945
	c0.058,0.799,0.151,1.605,0.259,2.414c-8.075,14.301,0.593,34.543-0.365,49.724c-0.357,5.666,1.989,9.652,5.494,11.987
	c5.358,20.694,15.65,40.688,28.197,57.495c12.741,17.063,30.457,36.479,53.069,38.054c1.69,5.386,6.186,9.755,13.529,9.755
	c8.48,0,13.244-5.797,14.287-12.273c1.268-4.229,0.841-9.023-1.301-12.824c-6.683-40.444-7.285-83.056-4.855-123.883
	C131.177,168.909,133.813,148.2,134.141,127.116z"/>
<path fill="#DC2826" d="M327.54,185.048c-1.723-25.372-10.707-49.105-18.757-74.11c-1.413-4.391-5.248-8.147-9.692-10.016
	c-2.62-5.486-5.668-10.724-10.844-15.189c-13.802-11.91-28.697-22.77-43.457-33.45c-1.403-1.015-2.853-1.683-4.309-2.058
	c-3.334-4.489-8.095-5.913-12.665-5.214c-8.319-7.257-25.093-3.75-25.206,10.628c-0.08,10.407,1.905,20.538,3.071,30.84
	c1.384,12.229,0.028,24.971-0.056,37.259c-0.165,24.098,0.281,48.163,1.17,72.243c0.864,23.45,1.684,46.603,0.205,70.049
	c-0.726,11.484-1.15,22.786-0.939,34.29c0.091,5.108-0.481,10.26,0.538,15.317c0.343,1.723,1.256,3.857,2.133,5.755
	c-3.087,12.961,13.776,26.328,24.809,14.244c1.374-1.511,2.609-3.053,3.616-4.688c13.481-4.387,24.741-12.838,36.016-21.358
	c13.21-9.992,21.763-22.918,32.809-34.983c3.159-3.452,4.312-7.283,4.069-10.907c0.626-0.74,1.163-1.513,1.612-2.316
	c3.232-3.659,6.568-7.431,8.722-11.822c3.024-6.175,3.691-12.784,4.291-19.552c0.122-1.38,0.027-2.654-0.21-3.851
	c1.361-2.097,2.477-4.438,3.445-7.099c1.206-3.317,0.697-7.35,1.081-10.948c1.438-2.617,2.548-5.371,3.094-8.515
	C333.161,193.405,331.083,188.314,327.54,185.048z"/>
<path fill="#FBD601" d="M219.579,283.737c-1.033-18.309-1.925-36.623-2.697-54.945c-1.263-29.942-2.004-59.906-2.233-89.874
	c0.306-0.419,0.591-0.852,0.855-1.305c1.563-2.707,1.948-5.285,1.816-8.064c2.14-3.422,2.825-7.775,2.151-12.161
	c-1.741-11.343-5.23-22.271-7.561-33.492c-1.102-5.301-1.712-10.998-0.396-16.282c0.937-3.768,3.711-6.938,4.47-10.915
	c2.215-11.669-8.044-19.152-16.982-18.614c-1.415-0.444-2.985-0.697-4.715-0.7c-14.9-0.034-29.796-0.386-44.656,0.992
	c-0.791,0.074-1.566,0.205-2.335,0.364c-7.26-2.162-15.462,0.495-17.093,10.097c-3.164,18.638-1.976,37.039-1.434,55.818
	c0.576,20.005-1.252,40.247-2.363,60.216c-2.385,42.792-5.085,85.554-5.167,128.43c-0.002,1.759,0.246,3.345,0.697,4.782
	c-0.074,0.391-0.148,0.778-0.201,1.17c-1.523,11.077-4.348,26.275,1.448,36.483c6.75,11.887,25.563,12.521,37.39,13.28
	c25.197,1.628,61.8,6.085,62.364-29.045C223.125,308.169,220.242,295.586,219.579,283.737z"/>
<circle fill="#FFFFFF" stroke="#000000" stroke-miterlimit="10" cx="121.676" cy="142.913" r="22.521"/>
<ellipse fill="#FFFFFF" stroke="#000000" stroke-miterlimit="10" cx="212.347" cy="146.243" rx="21.862" ry="22.521"/>
<line fill="none" stroke="#FFD400" stroke-width="6" stroke-miterlimit="10" x1="210.488" y1="7.408" x2="205.608" y2="24.307"/>
<line fill="none" stroke="#FFD400" stroke-width="6" stroke-miterlimit="10" x1="175.279" y1="21.403" x2="176.486" y2="5.177"/>
<line fill="none" stroke="#FFD400" stroke-width="6" stroke-miterlimit="10" x1="201.665" y1="24.145" x2="202.875" y2="7.917"/>
<line fill="none" stroke="#FFD400" stroke-width="6" stroke-miterlimit="10" x1="224.544" y1="6.281" x2="218.041" y2="25.781"/>
<line fill="none" stroke="#FFD400" stroke-width="6" stroke-miterlimit="10" x1="218.744" y1="21.573" x2="216.072" y2="5.346"/>
<line fill="none" stroke="#FFD400" stroke-width="6" stroke-miterlimit="10" x1="188.85" y1="22.2" x2="183.084" y2="5.346"/>
<line fill="none" stroke="#FFD400" stroke-width="6" stroke-miterlimit="10" x1="161.91" y1="3.429" x2="171.448" y2="17.504"/>
<line fill="none" stroke="#FFD400" stroke-width="6" stroke-miterlimit="10" x1="183.084" y1="22.047" x2="199.294" y2="4.534"/>
<line fill="none" stroke="#FFD400" stroke-width="6" stroke-miterlimit="10" x1="190.443" y1="0.737" x2="197.13" y2="26.809"/>
<line fill="none" stroke="#FFD400" stroke-width="6" stroke-miterlimit="10" x1="134.971" y1="2.775" x2="138.586" y2="23.015"/>
<line fill="none" stroke="#FFD400" stroke-width="6" stroke-miterlimit="10" x1="139.808" y1="21.27" x2="142.984" y2="5.311"/>
<line fill="none" stroke="#FFD400" stroke-width="6" stroke-miterlimit="10" x1="151.82" y1="21.92" x2="148.283" y2="0.737"/>
<line fill="none" stroke="#FFD400" stroke-width="6" stroke-miterlimit="10" x1="134.971" y1="18.562" x2="124.353" y2="4.262"/>
<line fill="none" stroke="#FFD400" stroke-width="6" stroke-miterlimit="10" x1="159.205" y1="-0.121" x2="154.323" y2="26.348"/>
<g>
	<polygon fill="none" stroke="#000000" stroke-width="3" stroke-miterlimit="10" points="173.728,346.184 169.429,346.826 
		165.126,346.863 160.871,346.135 156.614,345.598 152.445,344.454 148.037,344.9 143.902,343.642 139.704,342.77 135.625,341.406 
		131.533,340.162 127.342,339.239 123.326,337.743 119.11,336.795 115.425,334.463 111.538,332.692 107.221,331.832 
		103.521,329.629 99.917,327.282 95.894,325.69 92.596,322.868 89.089,320.42 85.096,318.683 81.771,315.963 78.204,313.57 
		75.371,310.268 71.57,308.123 68.545,305.075 65.815,301.735 62.184,299.306 59.519,295.925 56.696,292.701 54.335,289.101 
		51.542,285.861 48.895,282.505 46.26,279.125 44.125,275.407 41.661,271.903 38.871,268.57 37.239,264.567 35.805,260.491 
		33.046,257.069 32.15,252.775 30.382,248.886 28.594,244.991 27.113,240.976 25.538,236.982 24.17,232.909 23.303,228.703 
		22.029,224.592 21.086,220.397 20.668,216.114 20.339,211.83 19.553,207.609 19.452,203.314 19.059,199.048 18.664,194.77 
		18.674,190.48 18.667,186.189 18.965,181.908 18.971,177.606 19.434,173.333 20.945,169.208 20.461,164.796 22.052,160.726 
		23.063,156.567 23.112,152.169 25.329,148.33 26.152,144.111 26.833,139.814 28.69,135.918 30.675,132.096 31.768,127.9 
		33.609,124.02 35.697,120.265 38.146,116.717 40.281,113.015 41.978,109.039 44.209,105.372 46.783,101.936 49.563,98.661 
		52.306,95.376 54.683,91.797 57.058,88.184 59.863,84.923 63.687,82.648 66.29,79.201 69.194,76.028 73.012,73.88 75.839,70.593 
		79.281,68.039 83.003,65.874 86.429,63.321 89.574,60.321 93.362,58.291 97.155,56.294 101.013,54.432 104.666,52.193 
		108.435,50.149 112.429,48.589 116.077,46.194 120.421,45.539 124.139,43.197 128.527,42.831 132.582,41.463 136.522,39.576 
		140.776,38.904 144.997,38.115 149.2,37.235 153.466,36.753 157.695,35.95 161.996,35.814 166.27,35.375 170.562,35.08 
		174.862,35.375 179.137,35.904 183.436,35.695 187.717,35.958 191.967,36.571 196.286,36.632 200.413,37.997 204.579,38.989 
		208.933,39.117 213.03,40.425 217.161,41.571 221.226,42.925 225.317,44.193 229.396,45.522 233.15,47.667 237.531,48.319 
		241.387,50.236 245.288,52.036 248.808,54.568 252.593,56.582 256.495,58.426 260.126,60.727 263.214,63.813 266.492,66.574 
		270.586,68.273 273.712,71.24 276.537,74.523 280.352,76.692 283.337,79.787 286.466,82.732 288.925,86.306 291.726,89.542 
		294.909,92.463 297.345,96.008 300.195,99.229 301.984,103.209 305.109,106.272 307.344,109.939 309.127,113.867 310.957,117.744 
		313.667,121.162 315.151,125.213 316.595,129.257 318.913,132.929 320.176,137.04 321.138,141.238 323.429,145.003 
		324.638,149.127 325.253,153.405 326.248,157.576 326.774,161.838 328.039,165.968 328.306,170.262 329.152,174.478 
		329.53,178.753 329.076,183.071 329.411,187.338 329.329,191.617 330.191,195.919 330.005,200.212 329.675,204.499 
		328.404,208.681 327.956,212.934 328.14,217.307 326.761,221.416 325.386,225.5 325.142,229.845 323.272,233.774 323.074,238.188 
		321.463,242.184 319.588,246.063 317.797,249.956 316.411,254.017 314.547,257.873 312.588,261.678 310.262,265.282 
		308.485,269.19 306.783,273.169 304.475,276.787 302.093,280.367 299.326,283.661 296.796,287.127 293.974,290.359 
		291.109,293.546 288.294,296.778 284.89,299.438 282.55,303.158 278.803,305.427 275.709,308.374 273.07,311.896 269.36,314.127 
		265.839,316.576 262.729,319.603 258.656,321.228 255.123,323.639 251.435,325.812 247.585,327.684 243.982,330.03 
		240.095,331.826 236.219,333.651 232.244,335.242 228.303,336.923 224.321,338.524 220.135,339.513 216.199,341.334 
		211.932,341.98 207.804,343.168 203.536,343.688 199.33,344.515 195.147,345.528 190.772,345.036 186.609,346.515 182.3,346.368 
		178.018,346.692 	"/>
</g>
<polyline fill="#E2E2E1" stroke="#020202" stroke-miterlimit="10" points="206.896,39.132 220.51,39.711 227.784,11.66 
	212.079,12.221 206.896,39.132 131.607,38.861 120.223,12.03 212.079,12.221 "/>
</svg>
