<?xml version="1.0" encoding="utf-8"?>
<!-- Generator: Adobe Illustrator 15.0.0, SVG Export Plug-In . SVG Version: 6.00 Build 0)  -->
<!DOCTYPE svg PUBLIC "-//W3C//DTD SVG 1.1//EN" "http://www.w3.org/Graphics/SVG/1.1/DTD/svg11.dtd">
<svg version="1.1" id="Layer_1" xmlns="http://www.w3.org/2000/svg" xmlns:xlink="http://www.w3.org/1999/xlink" x="0px" y="0px"
	 width="350px" height="350px" viewBox="0 0 350 350" enable-background="new 0 0 350 350" xml:space="preserve">
<circle fill="#2A307A" cx="182.341" cy="207.718" r="142.591"/>
<line fill="none" stroke="#FFFFFF" stroke-width="16" stroke-miterlimit="10" x1="292.503" y1="120.669" x2="74.329" y2="300.808"/>
<line fill="none" stroke="#FCFDFF" stroke-width="16" stroke-miterlimit="10" x1="92.042" y1="99.432" x2="288.938" y2="304.143"/>
<path fill="none" stroke="#EC1C24" stroke-width="5" stroke-miterlimit="10" d="M83.453,102.728c0,0,90.818,88.591,89.541,94.393"/>
<line fill="none" stroke="#EC1C24" stroke-width="5" stroke-miterlimit="10" x1="298.974" y1="125.667" x2="196.426" y2="208.968"/>
<line fill="none" stroke="#EC1C24" stroke-width="5" stroke-miterlimit="10" x1="71.227" y1="297.071" x2="170.893" y2="217.45"/>
<line fill="none" stroke="#EC1C24" stroke-width="5" stroke-miterlimit="10" x1="294.324" y1="299.059" x2="209.895" y2="215.424"/>
<line fill="none" stroke="#FFFFFF" stroke-width="16" stroke-miterlimit="10" x1="183.875" y1="350.291" x2="187.229" y2="65.127"/>
<line fill="none" stroke="#FFFFFF" stroke-width="16" stroke-miterlimit="10" x1="41.3" y1="207.709" x2="324.875" y2="211.8"/>
<line fill="none" stroke="#EC1C24" stroke-width="10" stroke-miterlimit="10" x1="184.877" y1="66.969" x2="184.383" y2="348.664"/>
<line fill="none" stroke="#EC1C24" stroke-width="10" stroke-miterlimit="10" x1="322.538" y1="209.753" x2="41.3" y2="205.574"/>
<circle fill="#FCFDFF" stroke="#000000" stroke-width="2" stroke-miterlimit="10" cx="143.389" cy="157.613" r="22.147"/>
<circle fill="#D3D3D3" stroke="#DBB327" stroke-width="2" stroke-miterlimit="10" cx="231.219" cy="159.026" r="21.241"/>
<circle fill="#FCFDFF" stroke="#DBB327" stroke-width="2" stroke-miterlimit="10" cx="244.493" cy="180.269" r="4.149"/>
<circle fill="#FCFDFF" stroke="#DBB327" stroke-width="2" stroke-miterlimit="10" cx="247.624" cy="188.528" r="4.149"/>
<circle fill="#FCFDFF" stroke="#DBB327" stroke-width="2" stroke-miterlimit="10" cx="253.594" cy="194.497" r="4.149"/>
<circle fill="#FCFDFF" stroke="#DBB327" stroke-width="2" stroke-miterlimit="10" cx="259.055" cy="200.293" r="4.149"/>
<circle fill="#FCFDFF" stroke="#DBB327" stroke-width="2" stroke-miterlimit="10" cx="266.336" cy="205.754" r="4.149"/>
<circle fill="#FCFDFF" stroke="#DBB327" stroke-width="2" stroke-miterlimit="10" cx="273.617" cy="211.215" r="4.149"/>
<circle fill="#FCFDFF" stroke="#DBB327" stroke-width="2" stroke-miterlimit="10" cx="280.899" cy="214.855" r="4.149"/>
<circle fill="#FCFDFF" stroke="#DBB327" stroke-width="2" stroke-miterlimit="10" cx="288.18" cy="218.495" r="4.149"/>
<circle fill="#FCFDFF" stroke="#DBB327" stroke-width="2" stroke-miterlimit="10" cx="297.282" cy="222.137" r="4.149"/>
<circle fill="#FCFDFF" stroke="#DBB327" stroke-width="2" stroke-miterlimit="10" cx="306.382" cy="225.777" r="4.149"/>
<circle fill="#FCFDFF" stroke="#DBB327" stroke-width="2" stroke-miterlimit="10" cx="315.485" cy="229.417" r="4.149"/>
<path d="M232.788,73.375c-28.599,46.087-116.685,8.838-116.123,4.632c0.563-4.226,29.587-4.632,29.587-4.632l-4.255-72.566h66.472
	l4.863,67.934C213.332,68.743,236.084,69.941,232.788,73.375z"/>
<g>
	<polygon fill="none" stroke="#000000" stroke-width="3" stroke-miterlimit="10" points="181.82,350.012 178.822,350.667 
		175.856,349.951 172.887,349.669 169.858,350.09 166.943,349.199 163.877,349.671 161.047,348.326 158.081,348.002 
		155.105,347.687 152.172,347.121 149.202,346.704 146.405,345.569 143.456,345.036 140.456,344.626 137.688,343.447 
		135.067,341.883 132.261,340.882 129.198,340.516 126.477,339.26 123.927,337.635 121.24,336.337 118.591,334.968 115.711,334.039 
		113.162,332.471 110.591,330.948 108.026,329.417 105.216,328.269 102.735,326.586 100.537,324.502 97.891,323.062 96.04,320.554 
		93.597,318.845 90.812,317.534 88.648,315.46 86.316,313.579 84.51,311.133 82.292,309.136 80.23,306.978 78.379,304.626 
		75.947,302.808 73.979,300.559 72,298.316 70.431,295.746 68.652,293.353 67.098,290.798 65.196,288.496 63.535,286.021 
		61.938,283.507 60.266,281.034 58.928,278.365 56.765,276.153 56.2,273.073 53.907,270.887 53.15,267.932 51.644,265.335 
		51.08,262.33 49.093,259.911 48.653,256.881 47.995,253.953 46.188,251.408 45.12,248.603 44.54,245.652 43.9,242.728 
		43.39,239.776 43.136,236.78 41.958,233.97 41.316,231.046 41.455,228.001 40.976,225.057 40.981,222.059 40.354,219.124 
		39.738,216.17 40.351,213.153 40.165,210.178 39.575,207.196 40.233,204.221 39.775,201.219 39.894,198.231 40.458,195.278 
		41.088,192.345 40.599,189.282 41.581,186.401 41.288,183.325 42.01,180.413 43.492,177.669 43.283,174.562 43.972,171.647 
		44.771,168.761 46.267,166.088 46.667,163.083 47.959,160.367 48.8,157.495 49.626,154.608 51.105,151.984 52.591,149.378 
		53.581,146.551 54.389,143.616 56.465,141.323 57.759,138.633 59.547,136.222 60.549,133.346 61.841,130.625 63.723,128.28 
		65.097,125.591 67.488,123.627 69.523,121.43 70.484,118.39 72.438,116.115 75.045,114.412 76.527,111.735 78.37,109.359 
		81.015,107.759 82.955,105.477 85.008,103.299 87.197,101.263 89.462,99.31 91.501,97.083 93.942,95.337 96.616,93.908 
		98.768,91.792 101.706,90.779 103.898,88.7 106.606,87.398 109.115,85.793 111.644,84.216 114.037,82.382 116.674,80.975 
		119.18,79.299 121.924,78.093 124.98,77.6 127.577,76.09 130.468,75.287 133.072,73.741 136.095,73.338 138.639,71.528 
		141.686,71.267 144.595,70.603 147.486,69.891 150.325,68.956 153.111,67.705 156.117,67.486 159.083,67.117 162.066,66.888 
		165.033,66.612 167.908,65.449 170.929,65.644 173.92,65.645 176.881,65.09 179.876,65.285 182.861,65.186 185.862,64.604 
		188.848,64.982 191.816,65.455 194.795,65.668 197.727,66.337 200.799,65.804 203.732,66.457 206.609,67.386 209.52,68.045 
		212.511,68.305 215.303,69.477 218.192,70.188 221.285,70.189 223.983,71.599 227.071,71.754 229.598,73.601 232.44,74.501 
		235.22,75.579 237.91,76.869 240.705,77.912 243.506,78.961 246.106,80.434 248.982,81.374 251.777,82.502 254.105,84.462 
		256.631,86.058 259.375,87.309 261.915,88.897 264.403,90.565 266.915,92.206 269.136,94.237 271.626,95.913 273.623,98.198 
		275.673,100.391 278.021,102.237 280.398,104.064 282.23,106.462 284.417,108.491 286.821,110.326 288.354,112.97 290.684,114.894 
		292.474,117.29 294.229,119.707 296.376,121.822 298.331,124.098 299.44,126.972 301.078,129.459 302.657,131.985 304.397,134.412 
		305.71,137.096 307.168,139.691 308.592,142.306 310.748,144.563 311.765,147.395 312.906,150.159 313.721,153.056 315.21,155.672 
		316.544,158.366 317.541,161.189 318.609,163.991 318.93,167.021 319.481,169.965 320.76,172.713 321.834,175.534 321.395,178.687 
		322.12,181.576 323.397,184.385 323.343,187.418 324.066,190.335 324.542,193.292 324.632,196.288 325.235,199.248 
		324.833,202.264 324.908,205.25 325.25,208.239 324.762,211.223 325.285,214.233 325.096,217.225 324.763,220.204 324.021,223.137 
		324.12,226.159 323.644,229.115 323.057,232.052 322.196,234.932 321.315,237.794 321.219,240.831 319.908,243.58 319.24,246.484 
		318.568,249.395 317.745,252.264 317.304,255.272 315.978,257.976 314.789,260.722 313.819,263.555 312.607,266.29 
		311.365,269.011 310.357,271.852 308.344,274.18 307.241,276.979 305.501,279.428 304.37,282.234 302.134,284.358 301.288,287.377 
		298.849,289.328 297.079,291.725 295.414,294.201 293.598,296.565 292.063,299.169 289.623,301.012 288.043,303.6 285.998,305.779 
		284.155,308.158 282.038,310.28 279.815,312.288 277.615,314.319 275.133,316.024 272.604,317.652 270.169,319.374 
		268.016,321.461 265.729,323.39 263.065,324.787 260.584,326.432 258.39,328.534 255.965,330.304 253.302,331.679 250.475,332.741 
		247.955,334.362 245.341,335.812 242.428,336.638 239.752,337.949 237.008,339.112 234.234,340.203 231.65,341.809 
		228.667,342.329 225.845,343.294 223.066,344.409 220.322,345.691 217.438,346.505 214.323,346.336 211.589,347.818 
		208.508,347.644 205.621,348.457 202.597,348.414 199.727,349.469 196.771,349.98 193.756,349.827 190.756,349.674 
		187.815,350.759 184.799,349.759 	"/>
</g>
</svg>
