<?xml version="1.0" encoding="utf-8"?>
<!-- Generator: Adobe Illustrator 15.0.0, SVG Export Plug-In . SVG Version: 6.00 Build 0)  -->
<!DOCTYPE svg PUBLIC "-//W3C//DTD SVG 1.1//EN" "http://www.w3.org/Graphics/SVG/1.1/DTD/svg11.dtd">
<svg version="1.1" id="Layer_1" xmlns="http://www.w3.org/2000/svg" xmlns:xlink="http://www.w3.org/1999/xlink" x="0px" y="0px"
	 width="350px" height="350px" viewBox="0 0 350 350" enable-background="new 0 0 350 350" xml:space="preserve">
<g>
	<path fill="#EC1C24" d="M354.131,348.305c0,3.218-2.609,5.826-5.826,5.826H5.827c-3.218,0-5.827-2.608-5.827-5.826V5.827
		C0,2.609,2.609,0,5.827,0h342.478c3.217,0,5.826,2.609,5.826,5.827V348.305z"/>
	<path d="M354.131,348.305h-2.5c-0.002,0.926-0.369,1.742-0.975,2.352c-0.609,0.606-1.426,0.974-2.352,0.975H5.827
		c-0.926-0.001-1.743-0.368-2.353-0.975c-0.606-0.609-0.973-1.426-0.974-2.352V5.827C2.501,4.9,2.868,4.084,3.475,3.475
		C4.084,2.868,4.9,2.501,5.827,2.5h342.478c0.926,0.001,1.741,0.368,2.352,0.975c0.605,0.61,0.973,1.426,0.975,2.353v342.478
		H354.131h2.5V5.827c0.001-2.292-0.937-4.389-2.439-5.888c-1.498-1.503-3.596-2.44-5.887-2.439H5.827
		C3.535-2.501,1.438-1.564-0.062-0.061C-1.564,1.438-2.501,3.536-2.5,5.827v342.478c-0.001,2.291,0.936,4.389,2.439,5.888
		c1.499,1.503,3.596,2.439,5.888,2.438h342.478c2.291,0.001,4.388-0.936,5.887-2.438c1.503-1.499,2.44-3.597,2.439-5.888H354.131z"
		/>
	<path fill="#FFFFFF" d="M236.985,197.577c-13.071,30.495-48.388,44.623-78.884,31.553c-30.5-13.071-44.628-48.396-31.557-78.892
		c13.074-30.496,48.395-44.624,78.892-31.549C235.938,131.759,250.061,167.08,236.985,197.577z"/>
	<polyline points="189.543,170.973 172.126,139.795 154.666,149.549 172.083,180.727 	"/>
	<polyline points="170.463,157.066 201.058,141.284 191.889,123.51 161.294,139.291 	"/>
	<polyline points="185.318,184.777 216.638,168.973 207.628,151.118 176.309,166.922 	"/>
	<polyline points="201.12,160.992 216.983,189.035 234.392,179.188 218.528,151.145 	"/>
	<polyline points="172.121,180.793 187.096,207.126 204.48,197.239 189.506,170.906 	"/>
	<polyline points="194.624,191.285 163.363,208.766 173.125,226.222 204.386,208.74 	"/>
	<polyline points="176.893,167.411 150.081,181.915 159.597,199.506 186.408,185.002 	"/>
	<polyline points="167.515,189.545 148.943,152.884 131.102,161.922 149.674,198.584 	"/>
	<polygon fill="#FFFFFF" points="86.724,90.912 69.697,61.421 86.724,31.931 120.776,31.931 137.802,61.421 120.776,90.912 	"/>
	<polygon fill="#FFFFFF" points="229.16,91.398 212.133,61.908 229.16,32.417 263.213,32.417 280.238,61.908 263.213,91.398 	"/>
</g>
</svg>
