<?xml version="1.0" encoding="utf-8"?>
<!-- Generator: Adobe Illustrator 15.0.0, SVG Export Plug-In . SVG Version: 6.00 Build 0)  -->
<!DOCTYPE svg PUBLIC "-//W3C//DTD SVG 1.1//EN" "http://www.w3.org/Graphics/SVG/1.1/DTD/svg11.dtd">
<svg version="1.1" id="Layer_1" xmlns="http://www.w3.org/2000/svg" xmlns:xlink="http://www.w3.org/1999/xlink" x="0px" y="0px"
	 width="350px" height="350px" viewBox="0 0 350 350" enable-background="new 0 0 350 350" xml:space="preserve">
<g>
	<polygon fill="#C4203B" stroke="#2C318E" stroke-width="4" stroke-miterlimit="10" points="44.496,346.19 44.496,7.19 
		262.496,176.69 117.496,176.69 333.496,346.19 	"/>
	<polygon fill="#FCFDFF" points="100.496,221.397 106.034,243.522 121.893,227.13 115.626,249.061 137.556,242.794 121.164,258.652 
		143.289,264.19 121.164,269.729 137.556,285.587 115.626,279.32 121.893,301.251 106.034,284.858 100.496,306.983 94.958,284.858 
		79.1,301.251 85.366,279.32 63.436,285.587 79.829,269.729 57.703,264.19 79.829,258.652 63.436,242.794 85.366,249.061 
		79.1,227.13 94.958,243.522 	"/>
	<path fill="#FCFDFF" d="M79.829,162.359l-0.613,0.153c0.375,0.248,0.758,0.477,1.139,0.711c10.954,1.444,21.703,3.202,32.779,1.376
		c1.7-0.281,3.711-0.707,5.825-1.056c0.674-0.32,1.351-0.661,2.063-1.048c0.079-0.043,0.159-0.074,0.238-0.113l-0.097-0.024
		l16.393-15.858l-21.93,6.267l6.267-21.93l-15.858,16.393l-5.538-22.125l-5.538,22.125L79.1,130.837l6.267,21.93l-21.93-6.267
		L79.829,162.359z"/>
	<path fill="#FCFDFF" d="M54.721,142.972c0,0,13.685,15.128,26.014,17.845c12.33,2.717,38.682,1.114,42.36,0.194
		s23.59-15.487,23.59-15.487s-6.09,15.167-18.719,19.627c-12.628,4.46-26.845,6.066-26.845,6.066s-30.262-3.008-34.154-6.95
		C63.076,160.325,54.721,142.972,54.721,142.972z"/>
	<polygon fill="#FCFDFF" stroke="#000000" stroke-miterlimit="10" points="57.071,114.526 67.947,80.008 85.492,113.437 	"/>
	<polygon fill="#FCFDFF" stroke="#000000" stroke-miterlimit="10" points="128.147,115.658 99.732,114.403 113.413,80.898 	"/>
</g>
</svg>
