<?xml version="1.0" encoding="utf-8"?>
<!-- Generator: Adobe Illustrator 15.0.0, SVG Export Plug-In . SVG Version: 6.00 Build 0)  -->
<!DOCTYPE svg PUBLIC "-//W3C//DTD SVG 1.1//EN" "http://www.w3.org/Graphics/SVG/1.1/DTD/svg11.dtd">
<svg version="1.1" id="Layer_1" xmlns="http://www.w3.org/2000/svg" xmlns:xlink="http://www.w3.org/1999/xlink" x="0px" y="0px"
	 width="350px" height="350px" viewBox="0 0 350 350" enable-background="new 0 0 350 350" xml:space="preserve">
<g>
	<path fill="#EC1C24" d="M344.682,204.783c-6.917-11.502-24.12-11.047-35.894-11.146c-46.462-0.388-92.882-1.32-139.334-2.637
		c-50.343-1.428-100.45-6.399-150.723-9.106c-2.916-0.158-5.216,0.666-6.921,2.059c-5.753,1.33-10.013,6.931-8.254,13.408
		c1.147,4.237,2.283,8.47,3.557,12.67c1.73,5.704,6.067,11.129,6.601,17.061c0.708,7.879,3.535,13.259,7.269,18.882
		c1.46,2.467,3.138,4.818,4.905,7.148l0.07,0.102l0.004-0.004c0.562,0.74,1.131,1.477,1.705,2.215c0.339,0.435,0.7,0.81,1.071,1.158
		c4.559,8.965,8.696,18.142,13.813,26.876c3.409,5.82,8.709,9.873,14.213,13.539c1.208,0.805,2.49,1.55,3.777,2.301
		c3.635,3.829,7.668,7.086,11.368,11.018c2.492,2.649,5.253,3.653,7.853,3.503c8.289,6.751,16.736,13.258,26.578,17.472
		c18.566,7.952,36.571,11.453,56.684,11.445c21.402-0.007,43.197-0.585,63.896-6.581c9.132-2.647,16.8-8.476,26.164-10.568
		c4.905-1.096,8.608-3.741,12.273-6.446c5.138-2.363,10.023-5.28,14.529-8.824c1.714-1.348,2.672-3.074,3.077-4.926
		c5.624-2.456,11.163-4.95,15.87-9.445c5.604-5.349,12.144-13.012,16.354-19.519c5.673-8.769,12.361-17.823,16.58-27.354
		c3.725-8.419,7.965-16.824,11.011-25.505C344.813,217.779,348.262,210.736,344.682,204.783z"/>
	<path fill="#FFFFFF" d="M348.262,188.282c-0.049-1.024-0.241-2.017-0.549-2.966c-1.066-4.728-2.941-9.552-4.261-13.217
		c-6.39-17.771-2.374-37.009-9.417-54.718c-6.586-16.556-15.386-33.759-27.142-47.222c-4.585-5.251-9.891-9.853-15.575-14.015
		l-0.027-0.111c-3.193-9.739-13.014-16.381-20.996-22.163c-12.046-8.727-25.19-16.052-39.822-19.254
		c-15.225-3.33-30.877-6.076-46.239-8.78c-16.464-2.897-29.929,1.924-45.896,5.358c-14.291,3.072-28.027,8.259-41.203,14.523
		c-13.32,6.334-29.499,14.644-40.391,24.677c-9.744,8.974-14.719,21.109-23.029,31.125c-9.716,11.708-15.49,23.731-21.073,37.864
		c-4.858,12.3-14.903,38.187-8.957,53.013c-4.694,6.287-1.916,17.884,8.349,17.899c28.249,0.048,56.808-0.521,84.982,1.599
		c27.687,2.082,55.413,0.058,83.167,2.04c27.707,1.978,55.577,3.526,83.352,4.189c13.244,0.316,26.465,1.144,39.708,1.428
		c6.965,0.146,13.942,0.03,20.909,0.03c1.248,0,2.752-0.173,4.291-0.314c1.893,2.006,4.567,3.31,7.755,3.318
		C347.419,202.62,349.353,195.947,348.262,188.282z"/>
	<polyline fill="#231F20" points="68.074,96.673 163.811,146.61 165.198,143.951 69.461,94.013 	"/>
	<polyline fill="#231F20" points="144.125,79.222 82.908,162.397 85.324,164.175 146.541,81 	"/>
	<polyline fill="#231F20" points="215.963,101.119 273.941,156.453 276.012,154.283 218.033,98.949 	"/>
	<polyline fill="#231F20" points="272.28,94.613 206.662,150.876 208.615,153.153 274.233,96.891 	"/>
	<polygon fill="#EC1C24" points="87.884,67.56 88.164,62.05 91.721,66.267 96.204,63.051 95.126,68.459 100.434,69.962 
		95.533,72.49 97.669,77.574 92.636,75.321 89.992,80.162 88.616,74.822 83.185,75.774 86.5,71.365 82.369,67.713 	"/>
	<polygon fill="#231F20" points="87.884,67.56 88.259,67.578 88.49,63.019 91.657,66.773 95.649,63.91 94.69,68.726 99.418,70.063 
		95.053,72.315 96.955,76.844 92.473,74.837 90.118,79.148 88.893,74.392 84.055,75.24 87.007,71.313 83.329,68.061 88.241,67.925 
		88.259,67.578 87.884,67.56 87.874,67.185 81.409,67.364 85.991,71.416 82.313,76.307 88.339,75.251 89.866,81.176 92.799,75.805 
		98.383,78.305 96.013,72.664 101.45,69.86 95.562,68.193 96.757,62.192 91.783,65.76 87.838,61.082 87.51,67.541 87.884,67.56 
		87.874,67.185 	"/>
	<path fill="#EC1C24" d="M115.605,117.425c-1.615-3.215-4.985-3.145-4.845-7.515c0.098-2.976-3.188-5.223-4.442-7.792
		c-0.792-1.621-2.213-1.992-3.823-2.195c-0.312-2.04-0.74-3.742-1.908-5.533c-1.375-2.112-2.618-3.593-2.754-6.271
		c-0.081-1.587,1.285-3.793,1.502-5.523c0.369-2.93-3.102-8.473-5.833-9.55c-1.799-0.708-4.935,1.871-2.432,2.859
		c1.785,0.704,2.41,3.456,3.198,5.056c1.212,2.466-0.233,5.159-0.57,7.736c-1.704,0.785-3.836,1.219-5.157,2.588
		c-2.292,2.377,2.031,4.825,0.124,7.427c-1.833,2.502-3.682,4.108-5.116,7.026c-1.425,2.901-2.087,7.615-4.293,9.906
		c-0.98,1.018,3.101,0.548,3.845-0.227c1.523-1.58,1.929-3.495,2.464-5.583c0.845-3.29,3.044-7.128,5.183-9.71
		c0.771-0.93,3.319-2.377,2.829-4.003c-0.379-1.258-0.977-2.366-1.472-3.584c-0.284-0.696,0.576-1.385,1.636-1.97
		c0.269,1.613,1.167,3.081,2.019,4.438c1.396,2.225,2.11,3.688,2.515,6.132c-0.17,0.23-0.292,0.478-0.271,0.758
		c0.275,3.68,0.505,6.534-0.825,10.051c-1.349,3.555-1.573,7.384-3.004,10.923c-0.606,1.494,3.637,0.997,4.233-0.478
		c1.617-3.996,2.014-8.313,3.546-12.349c0.738-1.952,0.732-3.956,0.572-5.968c0.315,0.619,0.597,1.285,0.94,1.916
		c0.587,1.08,2.406,2.612,3.004,3.55c0.521,0.819,0.073,3.327,0.273,4.37c0.316,1.641,2.725,2.833,3.864,3.721
		c2.324,1.81,2.548,6.527,3.51,9.115c0.393,1.056,4.551-0.246,4.22-1.131C117.325,122.901,116.914,120.027,115.605,117.425z"/>
	<polygon fill="#EC1C24" points="238.9,166.878 235.501,162.535 240.949,163.386 242.229,158.02 244.959,162.812 249.952,160.467 
		247.907,165.587 252.854,168.029 247.575,169.625 248.753,175.014 244.213,171.885 240.734,176.161 240.348,170.659 
		234.835,170.607 	"/>
	<polygon fill="#231F20" points="238.9,166.878 239.098,166.724 236.088,162.879 241.139,163.668 242.324,158.693 244.855,163.136 
		249.485,160.962 247.59,165.709 252.175,167.973 247.281,169.452 248.373,174.449 244.164,171.548 240.939,175.513 240.58,170.411 
		235.471,170.363 239.239,166.906 239.098,166.724 238.9,166.878 238.731,166.694 234.199,170.851 240.114,170.906 240.528,176.811 
		244.261,172.222 249.133,175.58 247.869,169.797 253.532,168.085 248.225,165.465 250.419,159.972 245.062,162.487 
		242.132,157.345 240.76,163.103 234.914,162.19 238.703,167.032 238.9,166.878 238.731,166.694 	"/>
	<path fill="#EC1C24" d="M253.162,180.902c-0.672-1.587-1.036-2.831-2.596-3.771c-0.252-0.15-0.551-0.202-0.86-0.219
		c-1.21-1.289-4.094-4.472-3.439-5.585c1.24-0.558,2.236-1.494,0.711-1.805c-1.496-0.306-4.064,0.153-4.498,1.96
		c-0.354,1.481-0.011,2.737,0.657,3.875c-0.326,0.166-0.602,0.356-0.715,0.589c-0.546,1.113-1.68,1.666-2.252,2.73
		c-0.744,1.376-1.217,2.879-1.701,4.362c-0.919,2.815-4.099,3.861-4.054,7.136c0.013,0.931,4.239,0.23,4.22-1.131
		c-0.037-2.737,3.205-4.116,4.018-6.677c0.393-1.234,0.826-2.47,1.328-3.664c0.191-0.457,0.494-0.839,0.82-1.206
		c0.333,0.361,0.673,0.719,1.009,1.073c-2.896,2.844-2.308,6.411-0.881,10.171c0.54,1.421,4.712,0.16,4.221-1.131
		c-0.894-2.355-1.775-4.927-0.855-7.09c0.308,0.61,0.547,1.276,0.849,1.995c0.828,1.953,1.893,3.859,2.979,5.68
		c0.705,1.182,4.682-0.356,4.221-1.132C255.164,185.088,254.057,183.023,253.162,180.902z"/>
	<polygon fill="#EC1C24" points="142.809,147.813 140.464,144.066 144.735,145.204 146.203,141.035 147.978,145.082 
		152.154,143.636 150.095,147.544 153.83,149.904 149.489,150.734 149.973,155.127 146.622,152.251 143.487,155.368 143.643,150.95 
		139.252,150.446 	"/>
	<polygon fill="#231F20" points="142.809,147.813 142.915,147.747 140.737,144.269 144.814,145.354 146.216,141.375 147.91,145.237 
		151.896,143.857 149.93,147.587 153.496,149.841 149.352,150.633 149.814,154.826 146.615,152.081 143.622,155.057 
		143.771,150.839 139.581,150.358 142.976,147.845 142.915,147.747 142.809,147.813 142.734,147.712 138.923,150.534 
		143.513,151.061 143.35,155.68 146.628,152.421 150.132,155.429 149.625,150.835 154.164,149.967 150.259,147.5 152.411,143.414 
		148.046,144.926 146.19,140.695 144.656,145.053 140.189,143.864 142.702,147.879 142.809,147.813 142.734,147.712 	"/>
	<path fill="#EC1C24" d="M149.378,153.838c-0.239-1.218-1.043-2.112-1.455-3.276c-0.623-1.769-4.822-0.576-4.22,1.131
		c0.339,0.964,0.875,1.726,1.329,2.639c0.126,0.252,0.149,0.61,0.115,1.024c-0.668,0.284-1.216,0.738-1.282,1.335
		c-0.12,1.063-1.419,2.012-1.929,2.958c-0.736,1.363-1.135,2.118-2.485,2.957c-0.785,0.488-1.319,1.205-1.615,2.065
		c-0.523,1.506-0.393,2.056-1.682,3.07c-2.254,1.773,1.201,2.945,2.749,1.728c0.898-0.704,1.724-1.329,2.385-2.266
		c0.9-1.274,0.271-2.47,1.743-3.383c0.306-0.19,0.557-0.405,0.802-0.625c-0.184,1.408-0.226,2.805,0.324,4.337
		c0.636,1.767,4.833,0.57,4.22-1.131c-1.064-2.959,0.036-6.447,0.405-9.494C148.904,155.893,149.587,154.898,149.378,153.838z"/>
	<path fill="#EC1C24" d="M258.991,76.006l-0.46-0.197c-4.566,10.657-14.942,17.04-25.847,17.041c-3.693,0-7.446-0.732-11.058-2.28
		c-10.659-4.567-17.043-14.944-17.044-25.85c0-3.694,0.732-7.448,2.28-11.059c4.568-10.657,14.943-17.041,25.848-17.042
		c3.694,0,7.448,0.732,11.061,2.281c10.658,4.566,17.041,14.941,17.041,25.845c0,3.694-0.732,7.449-2.281,11.063L258.991,76.006
		l0.46,0.197c1.602-3.739,2.361-7.629,2.361-11.456c0.001-11.292-6.61-22.034-17.646-26.765c-3.738-1.603-7.629-2.362-11.455-2.362
		c-11.292,0-22.035,6.612-26.767,17.647c-1.603,3.737-2.361,7.627-2.361,11.453c-0.001,11.292,6.612,22.038,17.65,26.769
		c3.736,1.601,7.626,2.361,11.451,2.361c11.292,0,22.035-6.612,26.767-17.647L258.991,76.006z"/>
	<polyline fill="#EC1C24" points="231.724,64.466 223.432,49.62 220.813,51.083 229.104,65.929 	"/>
	<polyline fill="#EC1C24" points="226.569,53.653 241.532,46.931 240.303,44.194 225.34,50.917 	"/>
	<polyline fill="#EC1C24" points="231.09,66.536 246.004,59.012 244.652,56.333 229.738,63.858 	"/>
	<polyline fill="#EC1C24" points="242.683,55.587 250.488,68.852 253.074,67.33 245.269,54.065 	"/>
	<polyline fill="#EC1C24" points="229.11,65.938 236.241,78.478 238.849,76.995 231.718,64.456 	"/>
	<polyline fill="#EC1C24" points="239.409,75.197 225.02,83.292 226.49,85.907 240.88,77.812 	"/>
	<polyline fill="#EC1C24" points="230.1,64.049 217.332,70.955 218.76,73.594 231.527,66.688 	"/>
	<polyline fill="#EC1C24" points="221.341,74.33 213.903,59.448 211.22,60.79 218.657,75.671 	"/>
	<polygon points="174.718,344.997 174.296,343.558 171.762,344.3 168.782,343.259 165.576,344.298 162.945,343.993 159.891,343.516 
		156.946,343.551 154.018,342.826 151.107,342.862 148.364,341.729 145.117,341.291 142.097,341.274 139.577,340.868 136.8,338.983 
		133.564,339.052 131.05,337.95 128.02,336.863 124.867,336.538 122.115,336.061 119.621,334.994 117.053,333.391 114.025,331.963 
		110.814,331.688 108.201,330.863 105.791,329.734 103.327,327.438 100.139,326.933 97.837,325.309 94.971,324.023 94.357,325.393 
		94.992,324.033 92.315,322.782 89.686,321.402 89.674,321.396 87.251,320.152 85.128,317.771 82.104,316.554 79.765,315.093 
		77.592,313.26 75.309,311.018 72.534,309.635 70.357,307.84 69.403,308.997 70.372,307.852 68.089,305.922 65.786,303.971 
		63.421,302.126 61.296,300.363 59.518,297.791 56.915,295.979 54.892,294.022 52.962,291.909 51.108,289.351 48.512,287.435 
		46.403,285.658 44.792,283.148 42.737,281.239 41.837,278.243 39.71,275.796 37.886,273.279 35.511,271.33 33.941,269.008 
		32.259,266.643 30.909,264.032 29.489,261.557 28.524,258.448 26.442,256.278 25.8,253.221 23.449,250.836 22.126,248.357 
		20.705,245.818 19.685,243.361 19.487,239.992 17.621,237.502 17.345,234.559 15.87,231.572 14.321,228.975 13.237,226.57 
		13.108,223.698 12.668,220.541 11.833,217.616 11.187,214.754 10.468,211.586 8.788,209.023 8.648,206.43 8.572,203.094 
		7.17,200.35 7.309,197.52 6.71,194.501 6.546,191.717 6.781,188.666 6.455,185.629 6.39,182.652 6.087,179.691 6.08,176.645 
		5.5,173.559 5.128,171.021 6.474,168.053 5.934,164.905 6.667,162.04 6.448,158.738 6.066,156.105 7.466,153.441 7.78,150.198 
		8.155,147.354 8.857,144.439 9.246,141.314 9.293,138.304 9.748,135.571 10.624,132.928 11.975,130.149 12.815,126.98 
		12.994,123.996 13.947,121.479 15.307,118.746 16.311,115.655 16.629,112.818 18.372,110.334 18.896,107.144 19.942,104.714 
		21.624,102.415 23.696,99.841 24.69,96.784 25.885,94.086 26.911,91.499 28.757,89.356 30.77,86.738 31.725,83.886 33.68,81.695 
		35.03,78.785 36.282,76.404 38.595,74.421 40.207,71.629 41.806,69.176 43.411,66.923 45.633,65.122 48.206,62.947 49.464,60.223 
		52.079,58.615 53.462,55.902 56.173,54.552 58.09,51.905 60.146,49.884 62.174,47.768 64.436,45.913 66.757,43.903 68.652,41.948 
		71.757,40.864 73.639,38.174 76.064,36.78 78.442,34.842 80.847,33.157 80.841,33.16 83.139,31.563 86.186,30.458 88.202,28.206 
		91.041,27.557 93.85,25.793 96.092,24.042 98.863,23.146 101.556,21.638 104.059,20.452 107.233,19.742 109.588,17.711 
		112.329,17.167 115.281,15.953 117.953,14.586 120.41,13.604 123.745,13.551 126.46,11.528 128.81,10.821 131.929,11.048 
		135.206,10.234 138.051,8.838 140.603,7.782 143.421,7.542 146.294,7.112 149.361,7.198 152.428,6.621 155.277,6.167 
		158.163,6.012 161.224,5.94 164.309,5.446 167.001,4.896 170.067,5.514 172.993,4.688 175.896,5.441 179.236,4.883 181.842,4.317 
		184.729,5.446 188.053,4.967 190.893,4.899 193.736,5.147 196.613,5.623 199.544,6.177 202.588,6.845 205.502,6.887 208.19,7.921 
		211.371,8.665 214.137,8.659 216.737,10.492 219.994,10.604 222.659,11.619 225.728,12.328 228.596,12.792 231.326,13.898 
		234.27,14.586 236.695,15.543 239.08,17.754 242.074,18.72 244.834,20.415 247.948,20.457 250.027,22.338 253.073,23.631 
		255.935,24.564 258.245,25.638 260.256,28.245 263.511,29.495 266.184,30.37 268.23,32.142 270.526,34.204 273.184,36.132 
		275.943,37.096 277.74,39.265 280.256,41.267 282.585,42.778 284.342,45.324 287.035,47.09 289.312,48.96 291.766,50.764 
		292.654,49.555 291.749,50.751 293.838,52.331 295.171,55.407 297.98,56.88 299.331,59.698 302.313,61.282 303.943,63.209 
		305.271,65.885 307.053,68.571 309.218,70.856 311.182,72.766 312.414,75.724 314.975,77.481 315.831,80.215 317.739,82.733 
		319.229,85.261 320.812,87.692 322.061,90.408 323.781,93.106 325.791,95.395 327.26,97.803 328.615,100.417 328.617,100.42 
		329.901,102.882 330.449,105.77 331.453,108.984 333.348,111.381 333.953,113.926 334.404,117.112 335.758,119.93 336.632,122.617 
		337.317,125.507 338.243,128.595 339.903,131.242 340.621,133.606 340.165,136.921 341.709,139.92 342.294,142.487 
		342.281,145.446 342.652,148.536 343.145,151.486 343.527,154.516 344.306,157.356 344.365,160.336 345.112,163.271 
		345.123,165.891 344.335,168.978 344.663,172.388 345.591,175.124 344.941,177.757 344.502,180.912 344.504,184.03 
		344.576,186.938 344.269,189.826 344.039,192.63 342.954,195.637 343.238,198.721 342.42,201.4 341.806,204.613 342.076,207.744 
		341.73,210.357 340.502,213.231 340.428,216.34 339.451,219.051 338.89,222.015 338.012,224.53 336.106,227.119 335.27,230.282 
		334.527,233.102 333.521,235.728 332.026,238.535 331.626,241.531 330.148,243.779 330.146,243.784 328.314,246.594 
		327.891,249.765 326.684,251.953 324.395,254.223 323.196,257.191 321.762,259.646 320.234,262.104 318.262,264.63 317.434,267.52 
		315.332,269.541 314.01,272.229 311.813,274.223 310.056,276.988 308.74,279.725 307.311,281.854 304.679,283.444 302.58,285.916 
		300.637,288.247 298.893,290.723 297.248,292.783 294.377,294.259 292.669,296.974 290.295,298.783 288.683,301.228 
		285.973,302.55 283.932,305.036 281.799,306.807 279.42,308.4 276.57,310.007 274.66,312.563 272.505,314.048 269.646,315.354 
		267.296,317.506 265.185,319.07 262.05,319.853 259.648,322.147 257.477,323.525 254.53,324.117 251.631,325.371 248.832,326.621 
		246.201,328.164 243.535,329.615 241.15,331.225 238.556,331.98 235.47,332.578 232.701,333.838 229.877,334.595 226.883,335.667 
		224.188,337.227 221.851,338.258 218.857,337.996 215.452,338.62 212.846,340.199 210.178,340.379 207.134,340.643 
		204.141,341.086 201.194,341.525 201.182,341.527 198.24,341.992 198.244,341.991 195.107,342.479 192.553,343.591 
		189.541,342.737 186.247,343.864 183.729,344.471 180.898,343.697 177.751,343.637 174.536,343.487 174.296,343.558 
		174.718,344.997 174.648,346.495 177.646,346.635 180.467,346.689 183.684,347.568 187.084,346.749 189.624,345.88 192.767,346.77 
		195.95,345.383 198.705,344.956 198.709,344.955 201.65,344.49 201.637,344.492 204.582,344.053 207.482,343.623 210.408,343.371 
		213.776,343.144 216.535,341.472 219,341.02 222.355,341.313 225.551,339.904 228.151,338.399 230.769,337.462 233.719,336.672 
		236.389,335.455 239.261,334.9 242.439,333.973 245.098,332.181 247.682,330.773 250.208,329.293 252.852,328.111 252.239,326.742 
		252.834,328.119 255.431,326.996 258.614,326.357 261.507,324.521 263.547,322.571 266.49,321.836 269.207,319.823 
		271.324,317.885 273.989,316.668 276.769,314.755 278.595,312.31 280.995,310.956 283.596,309.215 286.066,307.162 287.876,304.96 
		290.735,303.563 292.519,300.859 294.92,299.03 296.479,296.552 299.192,295.158 301.292,292.525 303.017,290.078 304.876,287.848 
		306.648,285.759 309.432,284.078 311.35,281.221 312.683,278.448 314.129,276.172 316.45,274.065 317.792,271.338 320.096,269.121 
		320.984,266.017 322.699,263.821 324.325,261.205 325.896,258.517 326.945,255.918 329.102,253.78 330.789,250.721 
		331.198,247.664 332.659,245.422 332.656,245.427 334.509,242.606 334.928,239.468 336.256,236.974 337.388,234.021 
		338.17,231.048 338.861,228.438 340.695,225.945 341.795,222.795 342.354,219.846 343.416,216.898 343.487,213.88 344.651,211.157 
		345.094,207.813 344.83,204.768 345.336,202.125 346.28,199.035 346.003,196.028 346.997,193.273 347.256,190.107 347.581,187.062 
		347.504,183.965 346.004,184.003 347.504,184.002 347.502,181.121 347.891,178.326 348.713,174.992 347.615,171.755 
		347.371,169.214 348.124,166.265 348.11,162.887 347.357,159.934 347.297,156.922 346.479,153.932 346.113,151.051 345.623,148.11 
		345.281,145.27 345.295,142.155 344.551,138.886 343.267,136.392 343.683,133.363 342.658,129.988 341,127.345 340.215,124.724 
		339.521,121.802 338.551,118.815 337.311,116.231 336.905,113.373 336.113,110.041 334.151,107.561 333.365,105.044 
		332.766,101.889 331.277,99.033 331.278,99.036 329.875,96.329 328.219,93.612 326.187,91.298 324.702,88.97 323.447,86.243 
		321.779,83.681 320.236,81.061 318.537,78.818 317.527,75.595 314.843,73.752 313.714,71.044 311.354,68.749 309.407,66.694 
		307.877,64.388 306.469,61.549 304.23,58.904 301.609,57.512 300.254,54.685 297.502,53.241 296.277,50.414 293.541,48.344 
		291.148,46.587 288.814,44.669 286.479,43.138 284.717,40.585 282.008,38.827 279.852,37.11 277.721,34.539 274.589,33.445 
		272.417,31.869 270.215,29.891 267.691,27.707 264.509,26.665 262.117,25.747 260.174,23.226 257.036,21.768 254.127,20.819 
		251.666,19.774 249.121,17.473 245.699,17.426 243.335,15.974 240.633,15.103 238.32,12.959 235.164,11.714 232.234,11.03 
		229.408,9.884 226.306,9.383 223.535,8.742 220.596,7.622 217.734,7.524 215.086,5.657 211.714,5.665 209.074,5.047 206.079,3.895 
		202.936,3.85 200.134,3.235 197.151,2.671 194.114,2.169 190.984,1.896 187.802,1.972 185.084,2.364 182.091,1.193 178.668,1.937 
		176.033,2.377 172.96,1.58 169.95,2.43 166.997,1.835 163.772,2.494 160.952,2.945 158.042,3.014 154.963,3.18 151.909,3.666 
		149.122,4.19 146.113,4.106 143.068,4.562 139.884,4.833 136.815,6.103 134.17,7.4 131.67,8.021 128.475,7.789 125.09,8.808 
		122.729,10.566 119.81,10.613 116.707,11.854 114.024,13.227 111.459,14.28 108.228,14.922 105.844,16.979 103.077,17.598 
		100.18,18.971 97.656,20.383 94.663,21.351 92.126,23.333 89.876,24.746 86.604,25.493 84.453,27.895 81.749,28.876 79.129,30.697 
		79.124,30.7 76.631,32.448 74.358,34.3 71.564,35.905 69.854,38.352 66.992,39.35 64.695,41.72 62.497,43.623 60.132,45.563 
		58.012,47.776 55.808,49.941 54.176,52.195 51.238,53.658 49.789,56.501 47.12,58.143 45.761,61.087 43.72,62.811 41.205,64.851 
		39.324,67.488 37.649,70.059 36.253,72.478 33.894,74.5 32.342,77.452 31.146,80.027 29.076,82.349 28.084,85.31 26.435,87.456 
		24.309,89.923 23.112,92.94 21.882,95.717 21.014,98.389 19.245,100.585 17.322,103.214 15.995,106.294 15.523,109.171 
		13.734,111.722 13.362,115.021 12.521,117.611 11.195,120.276 10.027,123.361 9.839,126.502 9.149,129.099 7.841,131.792 
		6.826,134.852 6.297,138.035 6.249,141.108 5.9,143.903 5.201,146.805 4.798,149.867 4.536,152.566 2.958,155.573 3.463,159.053 
		3.642,161.761 2.869,164.781 3.361,167.653 2.032,170.585 2.54,174.054 3.081,176.93 3.088,179.854 3.393,182.834 3.458,185.82 
		3.769,188.709 3.54,191.691 3.727,194.883 4.294,197.742 4.134,201.002 5.589,203.848 5.65,206.555 5.836,209.991 7.663,212.778 
		8.261,215.416 8.926,218.358 9.726,221.163 10.117,223.972 10.266,227.279 11.657,230.364 13.23,233.004 14.41,235.391 
		14.713,238.624 16.545,241.068 16.72,244.044 18,247.127 19.51,249.826 20.819,249.094 19.496,249.801 21.008,252.633 
		23.046,254.7 23.684,257.736 25.869,260.016 26.723,262.762 28.277,265.476 29.692,268.209 31.483,270.728 33.27,273.372 
		35.684,275.353 37.358,277.663 39.149,279.724 40.098,282.883 42.473,285.088 44.125,287.662 46.649,289.789 48.952,291.488 
		50.631,293.805 52.734,296.11 55.002,298.304 57.359,299.943 59.062,302.408 61.549,304.471 63.899,306.304 66.151,308.212 
		68.435,310.143 70.889,312.166 73.546,313.491 75.571,315.479 77.994,317.524 80.736,319.236 83.356,320.291 85.384,322.566 
		88.304,324.064 88.292,324.059 90.969,325.464 93.74,326.76 96.343,327.926 98.979,329.786 101.952,330.258 104.09,332.25 
		107.108,333.664 110.229,334.649 113.233,334.906 115.611,336.027 118.228,337.661 121.257,338.957 124.457,339.512 
		127.349,339.811 129.941,340.74 132.968,342.065 135.907,342.003 138.443,343.724 141.848,344.272 144.907,344.29 147.578,344.65 
		150.529,345.87 153.672,345.83 156.599,346.555 159.675,346.519 162.55,346.968 165.879,347.353 168.746,346.424 171.681,347.45 
		175.14,346.437 174.718,344.997 174.648,346.495 	"/>
</g>
</svg>
